<svg width="32" height="32" viewBox="0 0 32 32" fill="none" xmlns="http://www.w3.org/2000/svg">
<rect x="5.33398" y="6.66666" width="21.3333" height="21.3333" rx="2" stroke="white" stroke-width="2"/>
<rect x="5.33398" y="6.66666" width="21.3333" height="21.3333" rx="2" stroke="#071F37" stroke-opacity="0.6" stroke-width="2"/>
<path d="M21.334 2.66666L21.334 8.66665C21.334 9.60946 21.334 10.0809 21.0411 10.3738C20.7482 10.6666 20.2768 10.6667 19.334 10.6667L12.6673 10.6667C11.7245 10.6667 11.2531 10.6667 10.9602 10.3738C10.6673 10.0809 10.6673 9.60946 10.6673 8.66665L10.6673 2.66666" stroke="white" stroke-width="2" stroke-linecap="round"/>
<path d="M21.334 2.66666L21.334 8.66665C21.334 9.60946 21.334 10.0809 21.0411 10.3738C20.7482 10.6666 20.2768 10.6667 19.334 10.6667L12.6673 10.6667C11.7245 10.6667 11.2531 10.6667 10.9602 10.3738C10.6673 10.0809 10.6673 9.60946 10.6673 8.66665L10.6673 2.66666" stroke="#071F37" stroke-opacity="0.6" stroke-width="2" stroke-linecap="round"/>
<path d="M12 18.6667L20 18.6667" stroke="white" stroke-width="2" stroke-linecap="round"/>
<path d="M12 18.6667L20 18.6667" stroke="#071F37" stroke-opacity="0.6" stroke-width="2" stroke-linecap="round"/>
</svg>
