<svg width="40" height="40" viewBox="0 0 40 40" fill="none" xmlns="http://www.w3.org/2000/svg">
<path d="M33.0672 16.9227C32.9557 16.9227 32.8563 16.9583 32.765 17.0077H26.6217V4.14675C26.6662 3.62926 26.5152 3.15044 26.1951 2.79527C25.8385 2.40097 25.3035 2.18292 24.688 2.18292H7.92984C6.77346 2.18292 5.99609 2.96028 5.99609 4.11667V36.3439C5.99609 37.5003 6.77345 38.2768 7.92984 38.2768H24.688C25.3044 38.2768 25.8389 38.0596 26.1955 37.6644C26.5152 37.3101 26.6662 36.8308 26.6217 36.3134V36.2513C26.7161 36.3053 26.8182 36.344 26.9337 36.344H33.0672C33.8445 36.344 35.0009 35.8292 35.0009 34.4102V18.9411C35.0009 18.1301 34.4861 16.9229 33.0672 16.9229V16.9227ZM25.2387 36.8012C25.1317 36.9199 24.9312 36.9882 24.6879 36.9882H7.92982C7.48426 36.9882 7.28509 36.7895 7.28509 36.3444L7.28554 14.4379H25.3328V24.7599C25.2914 24.852 25.2626 24.9491 25.2626 25.0544V32.7888C25.2626 32.894 25.2918 32.9911 25.3328 33.0833V36.3433C25.3328 36.3653 25.3341 36.3869 25.3359 36.4098C25.3534 36.5784 25.3206 36.7102 25.2388 36.801L25.2387 36.8012ZM25.3327 4.11587V13.1484H7.28546V4.11587C7.28546 3.67032 7.48463 3.47114 7.93019 3.47114H24.6883C24.9307 3.47114 25.1316 3.53903 25.2386 3.65817C25.3213 3.74989 25.3542 3.88117 25.3357 4.04932C25.3339 4.07225 25.3326 4.09383 25.3326 4.11586L25.3327 4.11587ZM33.7119 34.4095C33.7119 34.9283 33.3576 35.0461 33.0671 35.0542H26.9337C26.8177 35.0542 26.7152 35.0929 26.6217 35.1464V33.7383C26.9414 33.8035 27.2673 33.8363 27.5987 33.8363C30.3084 33.8363 32.5132 31.6315 32.5132 28.9208C32.5132 26.2111 30.3084 24.0068 27.5987 24.0068C27.2673 24.0068 26.9414 24.0396 26.6217 24.1048V22.1634H33.7119L33.7119 34.4095ZM26.7126 32.2712V25.5717C26.9999 25.4949 27.2966 25.4571 27.5987 25.4571C29.5091 25.4571 31.0634 27.0109 31.0634 28.9208C31.0634 30.8312 29.5096 32.3858 27.5987 32.3858C27.2966 32.3858 27.0003 32.3472 26.7126 32.2712V32.2712ZM33.7119 20.8743H26.6216V18.2963H33.2631C33.3 18.2963 33.3314 18.2815 33.3661 18.2756C33.6484 18.4096 33.7068 18.732 33.7113 18.9406L33.7119 20.8743ZM9.2192 15.7178C8.86267 15.7178 8.57448 16.0064 8.57448 16.3625V22.1632C8.57448 22.5188 8.86267 22.8079 9.2192 22.8079C9.57574 22.8079 9.86393 22.5193 9.86393 22.1632V16.3625C9.86393 16.0064 9.57574 15.7178 9.2192 15.7178ZM9.2192 4.76065C8.86267 4.76065 8.57448 5.04929 8.57448 5.40537V11.206C8.57448 11.5617 8.86267 11.8508 9.2192 11.8508C9.57574 11.8508 9.86393 11.5621 9.86393 11.206V5.40537C9.86393 5.04929 9.57574 4.76065 9.2192 4.76065Z" fill="#F56900"/>
</svg>
