<svg width="16" height="17" viewBox="0 0 16 17" fill="none" xmlns="http://www.w3.org/2000/svg">
<path d="M12.3682 3.83331H3.63305H3.63313C3.46787 3.83331 3.33398 3.96719 3.33398 4.13246V12.8676V12.8675C3.33398 12.9469 3.36545 13.023 3.42154 13.0791C3.47763 13.1352 3.55376 13.1666 3.63313 13.1666H12.3683H12.3682C12.4475 13.1666 12.5237 13.1352 12.5798 13.0791C12.6358 13.023 12.6673 12.9469 12.6673 12.8675V4.13238V4.13246C12.6673 4.05308 12.6358 3.97696 12.5798 3.92087C12.5237 3.86478 12.4475 3.83331 12.3682 3.83331ZM12.069 12.5684H3.9322V4.43161H12.069V12.5684Z" fill="#071F37"/>
<path d="M7.70149 5.98715H10.5135V8.79914C10.5135 8.96432 10.6474 9.09829 10.8126 9.09829C10.9778 9.09829 11.1118 8.96432 11.1118 8.79914V5.688C11.1118 5.60871 11.0802 5.53259 11.0241 5.4765C10.968 5.42041 10.8919 5.38885 10.8126 5.38885H7.70149C7.53631 5.38885 7.40234 5.52282 7.40234 5.688C7.40234 5.85327 7.53631 5.98715 7.70149 5.98715Z" fill="#071F37"/>
<path d="M5.18782 11.6111H8.29896C8.46414 11.6111 8.59811 11.4772 8.59811 11.312C8.59811 11.1467 8.46414 11.0128 8.29896 11.0128H5.48697V8.20082C5.48697 8.03564 5.35309 7.90167 5.18782 7.90167C5.02264 7.90167 4.88867 8.03564 4.88867 8.20082V11.312C4.88867 11.3913 4.92022 11.4674 4.97631 11.5235C5.0324 11.5796 5.10853 11.6111 5.18782 11.6111Z" fill="#071F37"/>
</svg>
