<svg width="16" height="17" viewBox="0 0 16 17" fill="none" xmlns="http://www.w3.org/2000/svg">
<path d="M13.6609 8.90151H3.54433V3.29133C3.54433 2.81501 3.92646 2.42706 4.39997 2.41575C4.39674 2.4414 4.39329 2.46704 4.39393 2.49343C4.39684 2.63026 4.45211 2.75954 4.54983 2.85706L4.64604 2.95326C4.36463 3.42622 4.40341 4.02116 4.77963 4.39758L4.83415 4.4521L4.61577 4.67048L4.9434 4.99811L5.16178 4.77951L5.16189 4.77962L7.34614 2.59537L7.34603 2.59526L7.56441 2.37688L7.23678 2.04925L7.0184 2.26763L6.96399 2.21322C6.75854 2.00777 6.47843 1.89453 6.17535 1.89453C5.94727 1.89453 5.72049 1.96089 5.5202 2.07984L5.42356 1.9832C5.23502 1.79433 4.91732 1.78432 4.71962 1.95109H4.4212C3.68234 1.95109 3.08105 2.55227 3.08105 3.29112V8.9013H2.54042C2.2423 8.9013 2 9.14382 2 9.44194C2 9.74006 2.2423 9.98257 2.54042 9.98257H3.08113V10.7228C3.08113 12.0928 3.8826 13.2773 5.03773 13.8265C4.95941 14.1304 4.68575 14.3476 4.36868 14.3476C4.30522 14.3476 4.24187 14.3388 4.18036 14.3216L4.05463 14.7675C4.15698 14.7966 4.26267 14.811 4.36869 14.811C4.87838 14.811 5.32367 14.4757 5.47247 13.998C5.79235 14.0985 6.13247 14.1529 6.48509 14.1529H9.71672C10.0598 14.1529 10.3913 14.101 10.704 14.0052C10.8551 14.4789 11.2982 14.811 11.8053 14.811C11.9114 14.811 12.0169 14.7963 12.1194 14.7675L11.9936 14.3215C11.9323 14.3389 11.8689 14.3476 11.8053 14.3476C11.4922 14.3476 11.2216 14.1357 11.1393 13.8378C12.3076 13.294 13.1206 12.1027 13.1206 10.7231V9.98287H13.6613C13.9594 9.98287 14.2019 9.74035 14.2019 9.44223C14.2017 9.14411 13.9591 8.90171 13.6611 8.90171L13.6609 8.90151ZM6.63613 2.54086L6.69053 2.59527L5.16163 4.12417L5.10711 4.06998C4.83605 3.79892 4.86891 3.32508 5.18037 3.01373L5.57996 2.61403C5.74264 2.45135 5.95964 2.35826 6.17521 2.35826C6.35459 2.35826 6.51825 2.42323 6.63611 2.54088L6.63613 2.54086ZM4.86914 2.45133L5.01739 2.30276C5.02708 2.29307 5.03991 2.29091 5.04885 2.29091C5.05876 2.29091 5.07794 2.29371 5.0956 2.31117L5.16154 2.3771L4.94326 2.59548L4.87711 2.52955C4.86009 2.51253 4.85718 2.49367 4.85686 2.48398C4.85686 2.47482 4.85869 2.46157 4.86914 2.45133L4.86914 2.45133ZM12.6568 10.723C12.6568 12.3588 11.3378 13.6896 9.71644 13.6896H6.48482C4.86338 13.6896 3.54444 12.3588 3.54444 10.723V9.98277H12.6568V10.723ZM13.6609 9.51939H2.5404C2.49849 9.51939 2.46336 9.48406 2.46336 9.44214C2.46336 9.40023 2.4987 9.3649 2.5404 9.3649H13.6612C13.7031 9.3649 13.7384 9.40023 13.7384 9.44214C13.7383 9.48405 13.703 9.51939 13.6611 9.51939H13.6609Z" fill="#071F37"/>
<path d="M9.20312 7.07293L9.53073 6.7453L9.9677 7.18228L9.64009 7.50991L9.20312 7.07293Z" fill="#071F37"/>
<path d="M6.90906 4.7796L6.25391 4.12444L6.58154 3.79681L7.23669 4.45197L6.90906 4.7796Z" fill="#071F37"/>
<path d="M7.8917 5.76253L7.23633 5.10717L7.56396 4.77954L8.21933 5.4349L7.8917 5.76253Z" fill="#071F37"/>
<path d="M9.20156 6.41784L8.87392 6.74546L8.21875 6.09032L8.54639 5.7627L9.20156 6.41784Z" fill="#071F37"/>
<path d="M7.78232 6.74554L7.12695 6.09038L7.45458 5.76263L8.10995 6.41779L7.78232 6.74554Z" fill="#071F37"/>
<path d="M8.10938 7.07318L8.43701 6.74554L9.09227 7.40082L8.76464 7.72846L8.10938 7.07318Z" fill="#071F37"/>
<path d="M7.12731 5.43487L6.79968 5.76251L6.14453 5.10735L6.47216 4.77972L7.12731 5.43487Z" fill="#071F37"/>
<path d="M9.42138 7.72852L9.85837 8.1655L9.53074 8.49313L9.09375 8.05615L9.42138 7.72852Z" fill="#071F37"/>
<path d="M7.7821 4.56116L7.12695 3.906L7.45458 3.57837L8.10974 4.23352L7.7821 4.56116Z" fill="#071F37"/>
<path d="M9.09375 5.87175L9.42139 5.54413L10.0767 6.19938L9.74903 6.52701L9.09375 5.87175Z" fill="#071F37"/>
<path d="M10.4038 6.52679L10.8408 6.96378L10.5131 7.29141L10.0762 6.85443L10.4038 6.52679Z" fill="#071F37"/>
<path d="M8.10938 4.88879L8.43701 4.56116L9.09227 5.21643L8.76464 5.54406L8.10938 4.88879Z" fill="#071F37"/>
<path d="M8.32849 3.35998L8.00085 3.68761L7.3457 3.03246L7.67333 2.70483L8.32849 3.35998Z" fill="#071F37"/>
<path d="M9.31115 4.34269L8.98351 4.67032L8.32812 4.01495L8.65576 3.68732L9.31115 4.34269Z" fill="#071F37"/>
<path d="M11.0596 6.09019L10.7319 6.41783L10.2949 5.98083L10.6226 5.6532L11.0596 6.09019Z" fill="#071F37"/>
<path d="M10.2953 5.32568L9.96765 5.6533L9.3125 4.99816L9.64013 4.67053L10.2953 5.32568Z" fill="#071F37"/>
<path d="M8.437 7.83746L8.87397 8.27445L8.54635 8.60208L8.10938 8.16509L8.437 7.83746Z" fill="#071F37"/>
<path d="M6.47216 5.87152L7.12753 6.52689L6.7999 6.85452L6.14453 6.19915L6.47216 5.87152Z" fill="#071F37"/>
<path d="M5.81726 5.87177L5.16211 5.21661L5.48974 4.88898L6.14489 5.54414L5.81726 5.87177Z" fill="#071F37"/>
<path d="M7.45458 6.85474L8.10974 7.50988L7.7821 7.83751L7.12695 7.18236L7.45458 6.85474Z" fill="#071F37"/>
</svg>
