<svg width="16" height="17" viewBox="0 0 16 17" fill="none" xmlns="http://www.w3.org/2000/svg">
<path d="M14.0013 8.20846H13.9429V5.87055C13.9429 4.74733 13.0289 3.83331 11.9057 3.83331H3.75913C2.63591 3.83331 1.72199 4.74733 1.72199 5.87055V8.20846H1.66379C1.1137 8.20846 0.666121 8.64858 0.666121 9.18962L0.666016 13.791H3.38173V13.4141C3.38173 13.1228 3.61873 12.8858 3.91024 12.8858H11.7551C12.0466 12.8858 12.2834 13.1228 12.2834 13.4141L12.2835 13.791H14.9992L14.9991 9.18962C14.999 8.64858 14.5514 8.20846 14.0013 8.20846H14.0013ZM2.17472 5.87055C2.17472 4.99684 2.88552 4.28596 3.75921 4.28596H11.9058C12.7794 4.28596 13.4902 4.99686 13.4902 5.87055V8.20846H13.0376V8.13353C13.0376 7.17667 12.2591 6.39812 11.3023 6.39812H9.79414C8.83729 6.39812 8.05873 7.17667 8.05873 8.13353V8.20846H7.60609V8.13353C7.60619 7.17667 6.82753 6.39812 5.87078 6.39812H4.36278C3.40603 6.39812 2.62736 7.17667 2.62736 8.13353V8.20846H2.17472V5.87055ZM12.5849 8.20846H8.51138V8.13353C8.51138 7.42621 9.08682 6.85087 9.79404 6.85087H11.3021C12.0095 6.85087 12.5848 7.42612 12.5848 8.13353L12.5849 8.20846ZM7.15352 8.20846H3.07996V8.13353C3.07996 7.42621 3.65521 6.85087 4.36262 6.85087H5.87062C6.57794 6.85087 7.15328 7.42612 7.15328 8.13353V8.20846H7.15352ZM1.66391 8.6611H14.0013C14.3018 8.6611 14.5464 8.89811 14.5464 9.18962V11.2259H1.11872L1.11851 9.18962C1.11851 8.89811 1.36319 8.6611 1.66375 8.6611H1.66391ZM12.7329 13.3384C12.6942 12.8327 12.2703 12.4331 11.7548 12.4331H3.91C3.39442 12.4331 2.97052 12.8326 2.93189 13.3384H1.11858V11.6787H14.5463V13.3384H12.7329Z" fill="#071F37"/>
</svg>
