<svg width="24" height="24" viewBox="0 0 24 24" fill="none" xmlns="http://www.w3.org/2000/svg">
<path fill-rule="evenodd" clip-rule="evenodd" d="M7.93417 2C7.95604 2 7.97799 2 8 2L16.0658 2C16.9523 1.99995 17.7161 1.99991 18.3278 2.08215C18.9833 2.17028 19.6117 2.36902 20.1213 2.87868C20.631 3.38835 20.8297 4.0167 20.9179 4.67221C21.0001 5.28388 21.0001 6.0477 21 6.9342L21 15.0705C21 16.4247 21.0001 17.5413 20.8813 18.4251C20.7565 19.3529 20.4845 20.1723 19.8284 20.8284C19.1723 21.4845 18.3529 21.7565 17.4251 21.8813C16.5413 22.0001 15.4247 22 14.0705 22H9.92946C8.57533 22 7.4587 22.0001 6.57494 21.8813C5.64711 21.7565 4.82769 21.4845 4.17158 20.8284C3.51547 20.1723 3.2435 19.3529 3.11876 18.4251C2.99994 17.5413 2.99997 16.4247 3 15.0706L3 7C3 6.97799 3 6.95604 3 6.93417C2.99995 6.04769 2.99991 5.28387 3.08215 4.67221C3.17028 4.0167 3.36902 3.38835 3.87868 2.87868C4.38835 2.36902 5.0167 2.17028 5.67221 2.08215C6.28387 1.99991 7.04769 1.99995 7.93417 2ZM5.93871 4.06431C5.50497 4.12263 5.36902 4.21677 5.2929 4.2929C5.21677 4.36902 5.12263 4.50497 5.06431 4.93871C5.00213 5.40122 5 6.02893 5 7V15C5 16.4425 5.00213 17.4238 5.10092 18.1586C5.19585 18.8646 5.36322 19.1916 5.58579 19.4142C5.80836 19.6368 6.13538 19.8042 6.84144 19.8991C7.57626 19.9979 8.55752 20 10 20H14C15.4425 20 16.4238 19.9979 17.1586 19.8991C17.8646 19.8042 18.1916 19.6368 18.4142 19.4142C18.6368 19.1916 18.8042 18.8646 18.8991 18.1586C18.9979 17.4238 19 16.4425 19 15V7C19 6.02893 18.9979 5.40122 18.9357 4.93871C18.8774 4.50497 18.7832 4.36902 18.7071 4.2929C18.631 4.21677 18.495 4.12263 18.0613 4.06431C17.5988 4.00213 16.9711 4 16 4H8C7.02893 4 6.40122 4.00213 5.93871 4.06431Z" fill="#1976D2"/>
<path fill-rule="evenodd" clip-rule="evenodd" d="M14 21L14 18C14 17.4477 14.4477 17 15 17C15.5523 17 16 17.4477 16 18L16 21C16 21.5523 15.5523 22 15 22C14.4477 22 14 21.5523 14 21ZM9 17C9.55229 17 10 17.4477 10 18L10 21C10 21.5523 9.55228 22 9 22C8.44771 22 8 21.5523 8 21L8 18C8 17.4477 8.44772 17 9 17Z" fill="#1976D2"/>
<path fill-rule="evenodd" clip-rule="evenodd" d="M8 8C8 7.44772 8.44772 7 9 7L15 7C15.5523 7 16 7.44771 16 8C16 8.55228 15.5523 9 15 9L9 9C8.44772 9 8 8.55228 8 8Z" fill="#1976D2"/>
<path fill-rule="evenodd" clip-rule="evenodd" d="M8 12C8 11.4477 8.44772 11 9 11L15 11C15.5523 11 16 11.4477 16 12C16 12.5523 15.5523 13 15 13L9 13C8.44772 13 8 12.5523 8 12Z" fill="#1976D2"/>
</svg>
