<svg width="24" height="24" viewBox="0 0 24 24" fill="none" xmlns="http://www.w3.org/2000/svg">
<path fill-rule="evenodd" clip-rule="evenodd" d="M3 12C3 7.02944 7.02944 3 12 3C16.9706 3 21 7.02944 21 12V17.1199C21 17.5185 21 17.8624 20.9823 18.1476C20.9637 18.4476 20.9228 18.7483 20.8108 19.0484C20.5068 19.8637 19.8637 20.5068 19.0484 20.8108C18.7483 20.9228 18.4476 20.9637 18.1476 20.9823C17.8624 21 17.5185 21 17.1199 21H12C7.02944 21 3 16.9706 3 12ZM12 5C8.13401 5 5 8.13401 5 12C5 15.866 8.13401 19 12 19H17.0909C17.5266 19 17.8079 18.9996 18.0237 18.9862C18.2315 18.9733 18.3115 18.9511 18.3495 18.9369C18.6212 18.8356 18.8356 18.6212 18.9369 18.3495C18.9511 18.3115 18.9733 18.2315 18.9862 18.0237C18.9996 17.8079 19 17.5266 19 17.0909V12C19 8.13401 15.866 5 12 5Z" fill="#1976D2"/>
<path fill-rule="evenodd" clip-rule="evenodd" d="M8 11C8 10.4477 8.44772 10 9 10L15 10C15.5523 10 16 10.4477 16 11C16 11.5523 15.5523 12 15 12L9 12C8.44772 12 8 11.5523 8 11Z" fill="#1976D2"/>
<path fill-rule="evenodd" clip-rule="evenodd" d="M11 15C11 14.4477 11.4477 14 12 14H15C15.5523 14 16 14.4477 16 15C16 15.5523 15.5523 16 15 16H12C11.4477 16 11 15.5523 11 15Z" fill="#1976D2"/>
</svg>
