<svg width="32" height="32" viewBox="0 0 32 32" fill="none" xmlns="http://www.w3.org/2000/svg">
<path d="M4.47051 11.2657C4 12.2573 4 13.3853 4 15.6414V22.6875C4 25.8207 4 27.3874 5.00421 28.3607C5.91543 29.244 9.04488 29.3258 11.7143 29.3333V22.6876C11.7143 20.8522 13.2493 19.3643 15.1429 19.3643H16.8571C18.7507 19.3643 20.2857 20.8522 20.2857 22.6876V29.3333C22.9551 29.3258 26.0846 29.244 26.9958 28.3607C28 27.3874 28 25.8207 28 22.6875V15.6414C28 13.3853 28 12.2573 27.5295 11.2657C27.059 10.2741 26.1754 9.54 24.4081 8.07173L22.6939 6.64746C19.4996 3.99359 17.9025 2.66666 16 2.66666C14.0975 2.66666 12.5004 3.99359 9.30615 6.64746L7.59186 8.07173C5.82463 9.54 4.94101 10.2741 4.47051 11.2657Z" fill="white"/>
<path d="M4.47051 11.2657C4 12.2573 4 13.3853 4 15.6414V22.6875C4 25.8207 4 27.3874 5.00421 28.3607C5.91543 29.244 9.04488 29.3258 11.7143 29.3333V22.6876C11.7143 20.8522 13.2493 19.3643 15.1429 19.3643H16.8571C18.7507 19.3643 20.2857 20.8522 20.2857 22.6876V29.3333C22.9551 29.3258 26.0846 29.244 26.9958 28.3607C28 27.3874 28 25.8207 28 22.6875V15.6414C28 13.3853 28 12.2573 27.5295 11.2657C27.059 10.2741 26.1754 9.54 24.4081 8.07173L22.6939 6.64746C19.4996 3.99359 17.9025 2.66666 16 2.66666C14.0975 2.66666 12.5004 3.99359 9.30615 6.64746L7.59186 8.07173C5.82463 9.54 4.94101 10.2741 4.47051 11.2657Z" fill="#071F37" fill-opacity="0.6"/>
</svg>
