<svg width="22" height="22" viewBox="0 0 22 22" fill="none" xmlns="http://www.w3.org/2000/svg">
<path fill-rule="evenodd" clip-rule="evenodd" d="M9 16C8.44772 16 8 15.5523 8 15L8 12C8 11.4477 8.44771 11 9 11C9.55228 11 10 11.4477 10 12L10 15C10 15.5523 9.55228 16 9 16Z" fill="white"/>
<path fill-rule="evenodd" clip-rule="evenodd" d="M9 16C8.44772 16 8 15.5523 8 15L8 12C8 11.4477 8.44771 11 9 11C9.55228 11 10 11.4477 10 12L10 15C10 15.5523 9.55228 16 9 16Z" fill="#071F37" fill-opacity="0.6"/>
<path fill-rule="evenodd" clip-rule="evenodd" d="M13 16C12.4477 16 12 15.5523 12 15L12 12C12 11.4477 12.4477 11 13 11C13.5523 11 14 11.4477 14 12L14 15C14 15.5523 13.5523 16 13 16Z" fill="white"/>
<path fill-rule="evenodd" clip-rule="evenodd" d="M13 16C12.4477 16 12 15.5523 12 15L12 12C12 11.4477 12.4477 11 13 11C13.5523 11 14 11.4477 14 12L14 15C14 15.5523 13.5523 16 13 16Z" fill="#071F37" fill-opacity="0.6"/>
<path fill-rule="evenodd" clip-rule="evenodd" d="M3.02624 8.01671C2.78926 8.00054 2.47962 8 2 8V6C2.0107 6 2.02136 6 2.03198 6C2.05346 6 2.07478 6 2.09597 6H19.904C19.9252 6 19.9465 6 19.968 6L20 6V8C19.5204 8 19.2107 8.00054 18.9738 8.01671C18.7458 8.03227 18.6589 8.05888 18.6173 8.07612C18.3723 8.17762 18.1776 8.37229 18.0761 8.61732C18.0589 8.65893 18.0323 8.74576 18.0167 8.97376C18.0005 9.21074 18 9.52038 18 10L18 16.0658C18.0001 16.9523 18.0001 17.7161 17.9179 18.3278C17.8297 18.9833 17.631 19.6117 17.1213 20.1213C16.6117 20.631 15.9833 20.8297 15.3278 20.9179C14.7161 21.0001 13.9523 21.0001 13.0658 21H8.93417C8.04768 21.0001 7.28387 21.0001 6.67221 20.9179C6.01669 20.8297 5.38834 20.631 4.87868 20.1213C4.36902 19.6117 4.17027 18.9833 4.08214 18.3278C3.9999 17.7161 3.99995 16.9523 4 16.0658L4 10C4 9.52038 3.99946 9.21074 3.98329 8.97376C3.96773 8.74576 3.94112 8.65893 3.92388 8.61732C3.82239 8.37229 3.62771 8.17762 3.38268 8.07612C3.34107 8.05888 3.25424 8.03227 3.02624 8.01671ZM16.1728 8H5.8272C5.92099 8.27761 5.95955 8.55764 5.97865 8.83762C6.00002 9.15088 6.00001 9.52936 6 9.96801L6 16C6 16.9711 6.00212 17.5988 6.06431 18.0613C6.12262 18.495 6.21677 18.631 6.29289 18.7071C6.36902 18.7832 6.50496 18.8774 6.9387 18.9357C7.40121 18.9979 8.02892 19 9 19H13C13.9711 19 14.5988 18.9979 15.0613 18.9357C15.495 18.8774 15.631 18.7832 15.7071 18.7071C15.7832 18.631 15.8774 18.495 15.9357 18.0613C15.9979 17.5988 16 16.9711 16 16V9.96801C16 9.52936 16 9.15088 16.0213 8.83762C16.0405 8.55764 16.079 8.27761 16.1728 8Z" fill="white"/>
<path fill-rule="evenodd" clip-rule="evenodd" d="M3.02624 8.01671C2.78926 8.00054 2.47962 8 2 8V6C2.0107 6 2.02136 6 2.03198 6C2.05346 6 2.07478 6 2.09597 6H19.904C19.9252 6 19.9465 6 19.968 6L20 6V8C19.5204 8 19.2107 8.00054 18.9738 8.01671C18.7458 8.03227 18.6589 8.05888 18.6173 8.07612C18.3723 8.17762 18.1776 8.37229 18.0761 8.61732C18.0589 8.65893 18.0323 8.74576 18.0167 8.97376C18.0005 9.21074 18 9.52038 18 10L18 16.0658C18.0001 16.9523 18.0001 17.7161 17.9179 18.3278C17.8297 18.9833 17.631 19.6117 17.1213 20.1213C16.6117 20.631 15.9833 20.8297 15.3278 20.9179C14.7161 21.0001 13.9523 21.0001 13.0658 21H8.93417C8.04768 21.0001 7.28387 21.0001 6.67221 20.9179C6.01669 20.8297 5.38834 20.631 4.87868 20.1213C4.36902 19.6117 4.17027 18.9833 4.08214 18.3278C3.9999 17.7161 3.99995 16.9523 4 16.0658L4 10C4 9.52038 3.99946 9.21074 3.98329 8.97376C3.96773 8.74576 3.94112 8.65893 3.92388 8.61732C3.82239 8.37229 3.62771 8.17762 3.38268 8.07612C3.34107 8.05888 3.25424 8.03227 3.02624 8.01671ZM16.1728 8H5.8272C5.92099 8.27761 5.95955 8.55764 5.97865 8.83762C6.00002 9.15088 6.00001 9.52936 6 9.96801L6 16C6 16.9711 6.00212 17.5988 6.06431 18.0613C6.12262 18.495 6.21677 18.631 6.29289 18.7071C6.36902 18.7832 6.50496 18.8774 6.9387 18.9357C7.40121 18.9979 8.02892 19 9 19H13C13.9711 19 14.5988 18.9979 15.0613 18.9357C15.495 18.8774 15.631 18.7832 15.7071 18.7071C15.7832 18.631 15.8774 18.495 15.9357 18.0613C15.9979 17.5988 16 16.9711 16 16V9.96801C16 9.52936 16 9.15088 16.0213 8.83762C16.0405 8.55764 16.079 8.27761 16.1728 8Z" fill="#071F37" fill-opacity="0.6"/>
<path fill-rule="evenodd" clip-rule="evenodd" d="M12.4057 2.12123C11.9817 2.0399 11.489 2 10.9998 2C10.5105 2 10.0178 2.0399 9.59387 2.12123C9.38192 2.16189 9.17441 2.21529 8.98642 2.28562C8.81566 2.34951 8.58278 2.45558 8.38574 2.63942C7.98193 3.01618 7.96 3.64897 8.33676 4.05278C8.69229 4.43384 9.27579 4.47484 9.67975 4.16168C9.68205 4.16078 9.68456 4.15982 9.68727 4.15881C9.74063 4.13884 9.83332 4.11176 9.97066 4.08542C10.2453 4.03274 10.6085 4 10.9998 4C11.3911 4 11.7543 4.03274 12.0289 4.08542C12.1663 4.11176 12.2589 4.13884 12.3123 4.1588C12.315 4.15982 12.3175 4.16078 12.3198 4.16168C12.7238 4.47484 13.3073 4.43384 13.6628 4.05278C14.0396 3.64897 14.0176 3.01618 13.6138 2.63942C13.4168 2.45558 13.1839 2.34951 13.0132 2.28562C12.8252 2.21529 12.6177 2.16189 12.4057 2.12123Z" fill="white"/>
<path fill-rule="evenodd" clip-rule="evenodd" d="M12.4057 2.12123C11.9817 2.0399 11.489 2 10.9998 2C10.5105 2 10.0178 2.0399 9.59387 2.12123C9.38192 2.16189 9.17441 2.21529 8.98642 2.28562C8.81566 2.34951 8.58278 2.45558 8.38574 2.63942C7.98193 3.01618 7.96 3.64897 8.33676 4.05278C8.69229 4.43384 9.27579 4.47484 9.67975 4.16168C9.68205 4.16078 9.68456 4.15982 9.68727 4.15881C9.74063 4.13884 9.83332 4.11176 9.97066 4.08542C10.2453 4.03274 10.6085 4 10.9998 4C11.3911 4 11.7543 4.03274 12.0289 4.08542C12.1663 4.11176 12.2589 4.13884 12.3123 4.1588C12.315 4.15982 12.3175 4.16078 12.3198 4.16168C12.7238 4.47484 13.3073 4.43384 13.6628 4.05278C14.0396 3.64897 14.0176 3.01618 13.6138 2.63942C13.4168 2.45558 13.1839 2.34951 13.0132 2.28562C12.8252 2.21529 12.6177 2.16189 12.4057 2.12123Z" fill="#071F37" fill-opacity="0.6"/>
</svg>
