<svg width="25" height="24" viewBox="0 0 25 24" fill="none" xmlns="http://www.w3.org/2000/svg">
<path fill-rule="evenodd" clip-rule="evenodd" d="M8.43417 2C8.45604 2 8.47799 2 8.5 2L16.5658 2C17.4523 1.99995 18.2161 1.99991 18.8278 2.08215C19.4833 2.17028 20.1117 2.36902 20.6213 2.87868C21.131 3.38835 21.3297 4.0167 21.4179 4.67221C21.5001 5.28388 21.5001 6.0477 21.5 6.9342L21.5 15.0705C21.5 16.4247 21.5001 17.5413 21.3813 18.4251C21.2565 19.3529 20.9845 20.1723 20.3284 20.8284C19.6723 21.4845 18.8529 21.7565 17.9251 21.8813C17.0413 22.0001 15.9247 22 14.5705 22H10.4295C9.07533 22 7.9587 22.0001 7.07494 21.8813C6.14711 21.7565 5.32769 21.4845 4.67158 20.8284C4.01547 20.1723 3.7435 19.3529 3.61876 18.4251C3.49994 17.5413 3.49997 16.4247 3.5 15.0706L3.5 7C3.5 6.97799 3.5 6.95604 3.5 6.93417C3.49995 6.04769 3.49991 5.28387 3.58215 4.67221C3.67028 4.0167 3.86902 3.38835 4.37868 2.87868C4.88835 2.36902 5.5167 2.17028 6.17221 2.08215C6.78387 1.99991 7.54769 1.99995 8.43417 2ZM6.43871 4.06431C6.00497 4.12263 5.86902 4.21677 5.7929 4.2929C5.71677 4.36902 5.62263 4.50497 5.56431 4.93871C5.50213 5.40122 5.5 6.02893 5.5 7V15C5.5 16.4425 5.50213 17.4238 5.60092 18.1586C5.69585 18.8646 5.86322 19.1916 6.08579 19.4142C6.30836 19.6368 6.63538 19.8042 7.34144 19.8991C8.07626 19.9979 9.05752 20 10.5 20H14.5C15.9425 20 16.9238 19.9979 17.6586 19.8991C18.3646 19.8042 18.6916 19.6368 18.9142 19.4142C19.1368 19.1916 19.3042 18.8646 19.3991 18.1586C19.4979 17.4238 19.5 16.4425 19.5 15V7C19.5 6.02893 19.4979 5.40122 19.4357 4.93871C19.3774 4.50497 19.2832 4.36902 19.2071 4.2929C19.131 4.21677 18.995 4.12263 18.5613 4.06431C18.0988 4.00213 17.4711 4 16.5 4H8.5C7.52893 4 6.90122 4.00213 6.43871 4.06431Z" fill="#1976D2"/>
<path fill-rule="evenodd" clip-rule="evenodd" d="M14.5 21L14.5 18C14.5 17.4477 14.9477 17 15.5 17C16.0523 17 16.5 17.4477 16.5 18L16.5 21C16.5 21.5523 16.0523 22 15.5 22C14.9477 22 14.5 21.5523 14.5 21ZM9.5 17C10.0523 17 10.5 17.4477 10.5 18L10.5 21C10.5 21.5523 10.0523 22 9.5 22C8.94771 22 8.5 21.5523 8.5 21L8.5 18C8.5 17.4477 8.94772 17 9.5 17Z" fill="#1976D2"/>
<path fill-rule="evenodd" clip-rule="evenodd" d="M8.5 8C8.5 7.44772 8.94772 7 9.5 7L15.5 7C16.0523 7 16.5 7.44771 16.5 8C16.5 8.55228 16.0523 9 15.5 9L9.5 9C8.94772 9 8.5 8.55228 8.5 8Z" fill="#1976D2"/>
<path fill-rule="evenodd" clip-rule="evenodd" d="M8.5 12C8.5 11.4477 8.94772 11 9.5 11L15.5 11C16.0523 11 16.5 11.4477 16.5 12C16.5 12.5523 16.0523 13 15.5 13L9.5 13C8.94772 13 8.5 12.5523 8.5 12Z" fill="#1976D2"/>
</svg>
