<svg width="24" height="24" viewBox="0 0 24 24" fill="none" xmlns="http://www.w3.org/2000/svg">
<path fill-rule="evenodd" clip-rule="evenodd" d="M6.03268 15.0186L4.29228 14.0332C4.50262 13.6617 4.79727 13.3716 4.93922 13.2319C4.9536 13.2177 4.96642 13.2051 4.97742 13.1941L12.1715 6C12.1898 5.98169 12.2084 5.9631 12.2272 5.94428C12.5097 5.66144 12.846 5.32469 13.1743 5.07417C13.5707 4.77177 14.1797 4.41422 14.9999 4.41422C15.8201 4.41422 16.4292 4.77177 16.8255 5.07417C17.1539 5.32469 17.4902 5.66144 17.7727 5.94428C17.7915 5.96311 17.81 5.98169 17.8283 6L17.9999 6.17157L16.5857 7.58579L16.4141 7.41422C15.7475 6.74755 15.4141 6.41422 14.9999 6.41422C14.5857 6.41422 14.2524 6.74755 13.5857 7.41421L6.39163 14.6083C6.19698 14.8029 6.09965 14.9003 6.03268 15.0186ZM7.19891 18.4503L5.80837 18.7979C5.44735 18.8881 5.26682 18.9333 5.16673 18.8332C5.06664 18.7331 5.11177 18.5526 5.20203 18.1916L5.42941 17.282L5.86556 15.5374C5.93232 15.2704 5.96571 15.1368 6.03268 15.0186L4.29228 14.0332C4.08194 14.4046 3.98481 14.8065 3.93801 15.0002C3.93327 15.0198 3.92905 15.0373 3.92527 15.0524L3.26174 17.7065C3.25918 17.7167 3.25618 17.7285 3.25284 17.7417C3.21867 17.8764 3.14798 18.1551 3.1225 18.4155C3.09212 18.7261 3.06501 19.5599 3.75252 20.2474C4.44004 20.9349 5.27383 20.9078 5.58442 20.8774C5.84485 20.8519 6.12348 20.7813 6.25819 20.7471C6.27136 20.7437 6.28316 20.7407 6.29343 20.7382L8.94756 20.0746C8.96265 20.0709 8.98013 20.0666 8.99975 20.0619C9.19337 20.0151 9.59526 19.918 9.96676 19.7076M7.19891 18.4503L8.46249 18.1344C8.72955 18.0676 8.86308 18.0342 8.98137 17.9672C9.09965 17.9003 9.19698 17.8029 9.39163 17.6083L16.5857 10.4142C17.2524 9.74755 17.5857 9.41421 17.5857 9C17.5857 8.58579 17.2524 8.25245 16.5857 7.58579L17.9999 6.17157C18.0182 6.18988 18.0368 6.20845 18.0556 6.22726C18.3385 6.50974 18.6752 6.84606 18.9257 7.1744C19.2281 7.57075 19.5857 8.17978 19.5857 9C19.5857 9.82023 19.2281 10.4293 18.9257 10.8256C18.6752 11.1539 18.3385 11.4903 18.0556 11.7728C18.0368 11.7916 18.0182 11.8101 17.9999 11.8284L10.8058 19.0225C10.7948 19.0335 10.7822 19.0463 10.7681 19.0607C10.6283 19.2027 10.3383 19.4973 9.96676 19.7076" fill="white"/>
<path fill-rule="evenodd" clip-rule="evenodd" d="M6.03268 15.0186L4.29228 14.0332C4.50262 13.6617 4.79727 13.3716 4.93922 13.2319C4.9536 13.2177 4.96642 13.2051 4.97742 13.1941L12.1715 6C12.1898 5.98169 12.2084 5.9631 12.2272 5.94428C12.5097 5.66144 12.846 5.32469 13.1743 5.07417C13.5707 4.77177 14.1797 4.41422 14.9999 4.41422C15.8201 4.41422 16.4292 4.77177 16.8255 5.07417C17.1539 5.32469 17.4902 5.66144 17.7727 5.94428C17.7915 5.96311 17.81 5.98169 17.8283 6L17.9999 6.17157L16.5857 7.58579L16.4141 7.41422C15.7475 6.74755 15.4141 6.41422 14.9999 6.41422C14.5857 6.41422 14.2524 6.74755 13.5857 7.41421L6.39163 14.6083C6.19698 14.8029 6.09965 14.9003 6.03268 15.0186ZM7.19891 18.4503L5.80837 18.7979C5.44735 18.8881 5.26682 18.9333 5.16673 18.8332C5.06664 18.7331 5.11177 18.5526 5.20203 18.1916L5.42941 17.282L5.86556 15.5374C5.93232 15.2704 5.96571 15.1368 6.03268 15.0186L4.29228 14.0332C4.08194 14.4046 3.98481 14.8065 3.93801 15.0002C3.93327 15.0198 3.92905 15.0373 3.92527 15.0524L3.26174 17.7065C3.25918 17.7167 3.25618 17.7285 3.25284 17.7417C3.21867 17.8764 3.14798 18.1551 3.1225 18.4155C3.09212 18.7261 3.06501 19.5599 3.75252 20.2474C4.44004 20.9349 5.27383 20.9078 5.58442 20.8774C5.84485 20.8519 6.12348 20.7813 6.25819 20.7471C6.27136 20.7437 6.28316 20.7407 6.29343 20.7382L8.94756 20.0746C8.96265 20.0709 8.98013 20.0666 8.99975 20.0619C9.19337 20.0151 9.59526 19.918 9.96676 19.7076M7.19891 18.4503L8.46249 18.1344C8.72955 18.0676 8.86308 18.0342 8.98137 17.9672C9.09965 17.9003 9.19698 17.8029 9.39163 17.6083L16.5857 10.4142C17.2524 9.74755 17.5857 9.41421 17.5857 9C17.5857 8.58579 17.2524 8.25245 16.5857 7.58579L17.9999 6.17157C18.0182 6.18988 18.0368 6.20845 18.0556 6.22726C18.3385 6.50974 18.6752 6.84606 18.9257 7.1744C19.2281 7.57075 19.5857 8.17978 19.5857 9C19.5857 9.82023 19.2281 10.4293 18.9257 10.8256C18.6752 11.1539 18.3385 11.4903 18.0556 11.7728C18.0368 11.7916 18.0182 11.8101 17.9999 11.8284L10.8058 19.0225C10.7948 19.0335 10.7822 19.0463 10.7681 19.0607C10.6283 19.2027 10.3383 19.4973 9.96676 19.7076" fill="#071F37" fill-opacity="0.6"/>
<path d="M12.5 7.5L15.5 5.5L18.5 8.5L17.5 10L16.5 11.5L12.5 7.5Z" fill="white"/>
<path d="M12.5 7.5L15.5 5.5L18.5 8.5L17.5 10L16.5 11.5L12.5 7.5Z" fill="#071F37" fill-opacity="0.6"/>
</svg>
