<svg width="40" height="40" viewBox="0 0 40 40" fill="none" xmlns="http://www.w3.org/2000/svg">
<path d="M19.6475 1.25025C19.4605 1.25487 19.2844 1.338 19.1636 1.47886C19.1636 1.47886 16.58 4.51018 13.9932 8.24762C12.6997 10.1163 11.4017 12.1611 10.4189 14.1172C9.43566 16.0734 8.75 17.9227 8.75 19.5158C8.75 25.4573 13.6454 30.2879 19.667 30.2879C25.6886 30.2879 30.5803 25.4575 30.5803 19.5158C30.5803 17.9227 29.8946 16.0734 28.9114 14.1172C27.9282 12.1611 26.6303 10.1163 25.3371 8.24762C22.7503 4.51025 20.1667 1.47886 20.1667 1.47886H20.1661C20.0377 1.32906 19.8469 1.24477 19.648 1.25025H19.6475ZM19.6627 2.96768C20.0912 3.47627 21.9578 5.65812 24.2521 8.97238C25.524 10.8099 26.795 12.8186 27.7358 14.6904C28.6767 16.5623 29.2743 18.3129 29.2743 19.5157C29.2743 22.6839 27.6999 25.4771 25.2865 27.1977C25.921 26.1949 26.2937 25.0152 26.2937 23.7489C26.2937 22.7398 25.8742 21.641 25.293 20.4846C24.7117 19.3284 23.9517 18.1278 23.1941 17.0333C21.6791 14.8445 20.1661 13.072 20.1661 13.072H20.1655C20.0371 12.9219 19.8464 12.8379 19.6475 12.8434C19.4606 12.848 19.2845 12.9311 19.1636 13.072C19.1636 13.072 17.6507 14.8445 16.1357 17.0333C15.378 18.1278 14.6177 19.3284 14.0368 20.4846C13.4556 21.6409 13.0361 22.7401 13.0361 23.7489C13.0361 25.0129 13.4079 26.19 14.0406 27.1913C11.6317 25.4704 10.0605 22.6807 10.0605 19.516C10.0605 18.3133 10.6529 16.5626 11.5937 14.6907C12.5345 12.8189 13.8055 10.8102 15.0774 8.97267C17.3706 5.6596 19.2331 3.47806 19.6631 2.96797L19.6627 2.96768ZM19.6627 14.5563C20.0424 15.0112 20.8869 15.9975 22.1097 17.7637C22.8457 18.8268 23.5787 19.9849 24.1175 21.0572C24.6564 22.1295 24.9826 23.1293 24.9826 23.7482C24.9826 26.4701 22.9027 28.695 20.2191 28.966C20.0351 28.9758 19.8528 28.994 19.6662 28.994C19.4799 28.994 19.2982 28.977 19.1145 28.966C16.4305 28.695 14.346 26.4698 14.346 23.7482C14.346 23.1293 14.6736 22.1295 15.2124 21.0572C15.7513 19.9848 16.4832 18.8268 17.2192 17.7637C18.4413 15.9989 19.2821 15.0124 19.6627 14.5566V14.5563ZM13.8192 33.2084C13.4576 33.2281 13.1806 33.5326 13.1993 33.8891C13.2177 34.2458 13.5255 34.5203 13.887 34.503H26.6028C26.9641 34.5019 27.2566 34.2123 27.2566 33.8559C27.2566 33.4991 26.9641 33.2096 26.6028 33.2084H13.887C13.8642 33.2073 13.8417 33.2073 13.8192 33.2084H13.8192ZM9.91075 37.4567C9.55445 37.4648 9.27011 37.752 9.27011 38.1033C9.27011 38.4545 9.55445 38.7417 9.91075 38.7498H30.5795C30.7559 38.7539 30.9265 38.6875 31.0525 38.5657C31.1789 38.4442 31.25 38.2773 31.25 38.1033C31.25 37.9292 31.1789 37.7624 31.0525 37.6409C30.9265 37.519 30.7559 37.4527 30.5795 37.4567H9.91075Z" fill="#F56900"/>
</svg>
