<svg width="16" height="16" viewBox="0 0 16 16" fill="none" xmlns="http://www.w3.org/2000/svg">
<path fill-rule="evenodd" clip-rule="evenodd" d="M7.99935 3.33333C5.79021 3.33333 3.99935 5.12419 3.99935 7.33333C3.99935 8.76385 4.72742 9.94393 5.63603 10.8604C6.51783 11.7498 7.51708 12.3354 7.99935 12.5891C8.48162 12.3354 9.48086 11.7498 10.3627 10.8604C11.2713 9.94393 11.9993 8.76385 11.9993 7.33333C11.9993 5.12419 10.2085 3.33333 7.99935 3.33333ZM2.66602 7.33333C2.66602 4.38781 5.05383 2 7.99935 2C10.9449 2 13.3327 4.38781 13.3327 7.33333C13.3327 9.24703 12.3544 10.7452 11.3095 11.7991C10.264 12.8537 9.09589 13.5225 8.57166 13.7944C8.21062 13.9817 7.78807 13.9817 7.42703 13.7944C6.90281 13.5225 5.73468 12.8537 4.68917 11.7991C3.64429 10.7452 2.66602 9.24703 2.66602 7.33333ZM7.99935 6C7.26297 6 6.66602 6.59695 6.66602 7.33333C6.66602 8.06971 7.26297 8.66667 7.99935 8.66667C8.73573 8.66667 9.33268 8.06971 9.33268 7.33333C9.33268 6.59695 8.73573 6 7.99935 6ZM5.33268 7.33333C5.33268 5.86057 6.52659 4.66667 7.99935 4.66667C9.47211 4.66667 10.666 5.86057 10.666 7.33333C10.666 8.80609 9.47211 10 7.99935 10C6.52659 10 5.33268 8.80609 5.33268 7.33333Z" fill="white"/>
<path fill-rule="evenodd" clip-rule="evenodd" d="M7.99935 3.33333C5.79021 3.33333 3.99935 5.12419 3.99935 7.33333C3.99935 8.76385 4.72742 9.94393 5.63603 10.8604C6.51783 11.7498 7.51708 12.3354 7.99935 12.5891C8.48162 12.3354 9.48086 11.7498 10.3627 10.8604C11.2713 9.94393 11.9993 8.76385 11.9993 7.33333C11.9993 5.12419 10.2085 3.33333 7.99935 3.33333ZM2.66602 7.33333C2.66602 4.38781 5.05383 2 7.99935 2C10.9449 2 13.3327 4.38781 13.3327 7.33333C13.3327 9.24703 12.3544 10.7452 11.3095 11.7991C10.264 12.8537 9.09589 13.5225 8.57166 13.7944C8.21062 13.9817 7.78807 13.9817 7.42703 13.7944C6.90281 13.5225 5.73468 12.8537 4.68917 11.7991C3.64429 10.7452 2.66602 9.24703 2.66602 7.33333ZM7.99935 6C7.26297 6 6.66602 6.59695 6.66602 7.33333C6.66602 8.06971 7.26297 8.66667 7.99935 8.66667C8.73573 8.66667 9.33268 8.06971 9.33268 7.33333C9.33268 6.59695 8.73573 6 7.99935 6ZM5.33268 7.33333C5.33268 5.86057 6.52659 4.66667 7.99935 4.66667C9.47211 4.66667 10.666 5.86057 10.666 7.33333C10.666 8.80609 9.47211 10 7.99935 10C6.52659 10 5.33268 8.80609 5.33268 7.33333Z" fill="#071F37" fill-opacity="0.6"/>
</svg>
