<svg width="40" height="40" viewBox="0 0 40 40" fill="none" xmlns="http://www.w3.org/2000/svg">
<path d="M13.125 11.875H11.875V13.125H13.125V11.875Z" fill="white"/>
<path d="M13.125 11.875H11.875V13.125H13.125V11.875Z" fill="#071F37" fill-opacity="0.6"/>
<path d="M19.375 11.875H18.125V13.125H19.375V11.875Z" fill="white"/>
<path d="M19.375 11.875H18.125V13.125H19.375V11.875Z" fill="#071F37" fill-opacity="0.6"/>
<path d="M18.125 15.625H16.875C16.875 15.9565 16.7433 16.2745 16.5089 16.5089C16.2745 16.7433 15.9565 16.875 15.625 16.875C15.2935 16.875 14.9755 16.7433 14.7411 16.5089C14.5067 16.2745 14.375 15.9565 14.375 15.625H13.125C13.125 16.288 13.3884 16.9239 13.8572 17.3928C14.3261 17.8616 14.962 18.125 15.625 18.125C16.288 18.125 16.9239 17.8616 17.3928 17.3928C17.8616 16.9239 18.125 16.288 18.125 15.625Z" fill="white"/>
<path d="M18.125 15.625H16.875C16.875 15.9565 16.7433 16.2745 16.5089 16.5089C16.2745 16.7433 15.9565 16.875 15.625 16.875C15.2935 16.875 14.9755 16.7433 14.7411 16.5089C14.5067 16.2745 14.375 15.9565 14.375 15.625H13.125C13.125 16.288 13.3884 16.9239 13.8572 17.3928C14.3261 17.8616 14.962 18.125 15.625 18.125C16.288 18.125 16.9239 17.8616 17.3928 17.3928C17.8616 16.9239 18.125 16.288 18.125 15.625Z" fill="#071F37" fill-opacity="0.6"/>
<path d="M35.8125 7.49999C35.7349 7.42274 35.6382 7.36727 35.5324 7.33913C35.4265 7.31099 35.3151 7.31117 35.2093 7.33965C35.1035 7.36814 35.0071 7.42393 34.9297 7.50143C34.8522 7.57894 34.7966 7.67543 34.7682 7.78124L33.9107 10.9819L31.8563 11.4019L30.2882 10.0112L31.1438 6.81249C31.1721 6.70668 31.1721 6.5953 31.1438 6.48949C31.1155 6.38369 31.0598 6.28719 30.9825 6.20965C30.9051 6.13211 30.8088 6.07625 30.703 6.04768C30.5973 6.01911 30.4859 6.01883 30.38 6.04686C29.4567 6.29324 28.6116 6.77111 27.9245 7.43525C27.2374 8.0994 26.7311 8.92787 26.4535 9.84228C26.1759 10.7567 26.1362 11.7268 26.3382 12.6608C26.5401 13.5949 26.977 14.4619 27.6075 15.18L25.0438 24.75C24.6848 24.5625 24.3103 24.4065 23.9244 24.2837L18.75 22.6656V20.4962C19.8787 19.9209 20.8264 19.0446 21.4882 17.9644C22.15 16.8841 22.5002 15.6419 22.5 14.375V13.75C22.918 13.7514 23.3243 13.6126 23.6541 13.3559C23.9839 13.0991 24.2181 12.7392 24.3193 12.3337C24.4205 11.9282 24.3829 11.5005 24.2124 11.1189C24.0419 10.7373 23.7484 10.4239 23.3788 10.2287C23.4149 10.1768 23.4479 10.1228 23.4775 10.0669L23.54 9.93811C23.6591 9.70199 23.7265 9.44324 23.7378 9.17907C23.7491 8.91489 23.7041 8.65132 23.6058 8.40587C23.5074 8.16043 23.3579 7.93872 23.1673 7.75549C22.9766 7.57225 22.7492 7.43168 22.5 7.34311V4.14999C22.4981 3.71704 22.3471 3.29798 22.0724 2.96331C21.7977 2.62865 21.4162 2.39881 20.9919 2.31249L16.7244 1.45436C15.9963 1.31437 15.2482 1.31437 14.52 1.45436L10.2575 2.31249C9.8334 2.39894 9.45197 2.62883 9.17742 2.96348C8.90287 3.29813 8.75195 3.71713 8.75004 4.14999V7.34311C8.50081 7.4315 8.27324 7.57191 8.08246 7.75502C7.89167 7.93812 7.74203 8.15973 7.64349 8.40512C7.54494 8.65051 7.49974 8.91406 7.51089 9.17827C7.52205 9.44247 7.58929 9.70127 7.70817 9.93749L7.77067 10.0625C7.79998 10.119 7.83232 10.1738 7.86754 10.2269C7.49666 10.4217 7.20198 10.7354 7.03083 11.1178C6.85968 11.5002 6.82197 11.929 6.92376 12.3354C7.02556 12.7417 7.26094 13.1021 7.59214 13.3587C7.92333 13.6152 8.33112 13.753 8.75004 13.75V14.375C8.75142 15.6409 9.10229 16.8818 9.76397 17.9611C10.4257 19.0403 11.3725 19.9158 12.5 20.4912V22.6656L7.32692 24.2837C5.92539 24.7152 4.69967 25.5858 3.83057 26.7669C2.96147 27.9481 2.49502 29.3773 2.50004 30.8437V38.125C2.50004 38.2907 2.56589 38.4497 2.6831 38.5669C2.80031 38.6841 2.95928 38.75 3.12504 38.75H28.125C28.2908 38.75 28.4498 38.6841 28.567 38.5669C28.6842 38.4497 28.75 38.2907 28.75 38.125V36.875H27.5V37.5H24.375V35.625H23.125V37.5H8.12504V30.625H6.87504V37.5H3.75004V30.8437C3.74579 29.6441 4.12732 28.4748 4.83834 27.5086C5.54935 26.5423 6.55218 25.8303 7.69879 25.4775L9.37504 24.9531V28.75C9.37603 29.5785 9.70559 30.3728 10.2914 30.9586C10.8773 31.5444 11.6715 31.874 12.5 31.875H18.75C19.181 31.8741 19.6071 31.7835 20.0011 31.609C20.3951 31.4344 20.7485 31.1798 21.0388 30.8612C21.056 32.3291 21.6479 33.7317 22.6875 34.7681C22.7652 34.8454 22.8618 34.9008 22.9677 34.929C23.0736 34.9571 23.185 34.9569 23.2908 34.9284C23.3966 34.9 23.493 34.8442 23.5704 34.7667C23.6478 34.6892 23.7035 34.5927 23.7319 34.4869L24.5894 31.2862L26.6432 30.8656L28.2119 32.2562L27.3544 35.4569C27.3296 35.5495 27.3264 35.6466 27.3451 35.7406C27.3638 35.8346 27.4039 35.9231 27.4622 35.9992C27.5206 36.0753 27.5957 36.1369 27.6817 36.1793C27.7677 36.2217 27.8623 36.2437 27.9582 36.2437C28.012 36.2436 28.0655 36.2367 28.1175 36.2231C29.0411 35.977 29.8865 35.4993 30.5738 34.8352C31.2611 34.1711 31.7675 33.3425 32.0452 32.428C32.3228 31.5135 32.3624 30.5432 32.1603 29.6091C31.9581 28.675 31.5209 27.8079 30.89 27.09L33.6475 16.7981C34.5532 16.4918 35.3656 15.9593 36.0079 15.2512C36.6502 14.5431 37.1011 13.6827 37.3179 12.7516C37.5347 11.8205 37.5102 10.8494 37.2468 9.93043C36.9834 9.01141 36.4897 8.17486 35.8125 7.49999ZM24.2057 25.7381C23.2436 26.2097 22.4354 26.9449 21.875 27.8581V24.9531L23.5507 25.4775C23.7743 25.5505 23.993 25.6376 24.2057 25.7381ZM18.7869 23.9881L18.3044 26.505L16.6332 25.505L18.2994 23.8387L18.7869 23.9881ZM9.56254 9.84249C9.42926 9.86666 9.29174 9.84688 9.17067 9.78612C9.04961 9.72536 8.95156 9.62692 8.89129 9.50561L8.82879 9.38061C8.7847 9.2925 8.76206 9.19522 8.76273 9.0967C8.76339 8.99818 8.78734 8.90121 8.83262 8.81371C8.87789 8.7262 8.94321 8.65064 9.02325 8.59319C9.10329 8.53573 9.19578 8.49802 9.29317 8.48311L14.7732 7.64061C15.3398 7.55311 15.9165 7.55311 16.4832 7.64061L21.9632 8.48311C22.0604 8.498 22.1528 8.53564 22.2328 8.59298C22.3128 8.65032 22.3781 8.72574 22.4234 8.81309C22.4687 8.90043 22.4928 8.99725 22.4936 9.09565C22.4944 9.19405 22.472 9.29126 22.4282 9.37936L22.3657 9.50811C22.3052 9.62907 22.2072 9.72717 22.0863 9.78768C21.9654 9.8482 21.8281 9.86786 21.695 9.84374L16.6363 8.92311C15.9714 8.80186 15.29 8.80186 14.625 8.92311L9.56254 9.84249ZM22.5 12.5V11.25C22.6658 11.25 22.8248 11.3158 22.942 11.433C23.0592 11.5503 23.125 11.7092 23.125 11.875C23.125 12.0407 23.0592 12.1997 22.942 12.3169C22.8248 12.4341 22.6658 12.5 22.5 12.5ZM21.25 4.14999V7.10811L19.6407 6.85811L20.3219 3.44999L20.7444 3.53499C20.8867 3.56351 21.0147 3.64031 21.1068 3.75238C21.199 3.86445 21.2496 4.00491 21.25 4.14999ZM14.7613 2.68249C15.33 2.5728 15.9144 2.5728 16.4832 2.68249L19.0969 3.20749L18.4038 6.67186L16.6707 6.40499C15.9777 6.29749 15.2724 6.29749 14.5794 6.40499L12.8463 6.67186L12.1532 3.20624L14.7613 2.68249ZM10.505 3.53749L10.9282 3.45249L11.6094 6.86061L10 7.11061V4.14999C10.0011 4.00542 10.0518 3.86562 10.1438 3.75408C10.2358 3.64253 10.3633 3.56605 10.505 3.53749ZM8.12504 11.875C8.12504 11.7092 8.19089 11.5503 8.3081 11.433C8.42531 11.3158 8.58428 11.25 8.75004 11.25V12.5C8.58428 12.5 8.42531 12.4341 8.3081 12.3169C8.19089 12.1997 8.12504 12.0407 8.12504 11.875ZM10 14.375V11.0325L14.8425 10.1525C15.3591 10.0584 15.8885 10.0584 16.405 10.1525L21.25 11.0325V14.375C21.25 15.8668 20.6574 17.2976 19.6025 18.3525C18.5476 19.4074 17.1169 20 15.625 20C14.1332 20 12.7025 19.4074 11.6476 18.3525C10.5927 17.2976 10 15.8668 10 14.375ZM15.625 21.25C16.2592 21.2489 16.8901 21.1603 17.5 20.9869V22.8662L15.625 24.7412L13.75 22.8662V20.9837C14.3597 21.1588 14.9907 21.2484 15.625 21.25ZM12.9507 23.8344L14.6169 25.5L12.9457 26.5L12.4632 23.9831L12.9507 23.8344ZM18.75 30.625H12.5C12.0028 30.625 11.5258 30.4274 11.1742 30.0758C10.8226 29.7242 10.625 29.2473 10.625 28.75V24.5625L11.2619 24.3631L11.8869 27.6181C11.9057 27.7172 11.9483 27.8103 12.0109 27.8893C12.0734 27.9684 12.1542 28.0312 12.2464 28.0723C12.3385 28.1133 12.4392 28.1315 12.5398 28.1252C12.6405 28.119 12.7381 28.0884 12.8244 28.0362L15.625 26.3537L18.4282 28.0356C18.5145 28.0878 18.6121 28.1184 18.7128 28.1246C18.8134 28.1309 18.9141 28.1127 19.0062 28.0716C19.0983 28.0306 19.1791 27.9678 19.2417 27.8887C19.3043 27.8096 19.3468 27.7166 19.3657 27.6175L19.9907 24.3625L20.625 24.5625V28.75C20.625 29.2473 20.4275 29.7242 20.0759 30.0758C19.7242 30.4274 19.2473 30.625 18.75 30.625ZM36.0625 12.6081C35.8622 13.3487 35.4711 14.0237 34.9284 14.5659C34.3856 15.1081 33.7102 15.4985 32.9694 15.6981C32.8636 15.7266 32.7671 15.7824 32.6897 15.86C32.6122 15.9375 32.5565 16.0341 32.5282 16.14L29.5907 27.1006C29.5623 27.2065 29.5623 27.3179 29.5906 27.4237C29.6189 27.5296 29.6745 27.6262 29.7519 27.7037C30.224 28.1748 30.5819 28.7477 30.7983 29.3786C31.0147 30.0094 31.0838 30.6814 31.0003 31.343C30.9168 32.0047 30.6829 32.6385 30.3166 33.1957C29.9503 33.753 29.4612 34.2191 28.8869 34.5581L29.5169 32.2069C29.5471 32.0949 29.5456 31.9767 29.5125 31.8656C29.4794 31.7544 29.416 31.6547 29.3294 31.5775L27.2375 29.7231C27.1233 29.6217 26.9759 29.5657 26.8232 29.5656C26.7812 29.5658 26.7393 29.57 26.6982 29.5781L23.96 30.1406C23.8464 30.1639 23.7416 30.2183 23.6571 30.2978C23.5727 30.3772 23.512 30.4786 23.4819 30.5906L22.8525 32.9419C22.5247 32.3612 22.3341 31.7131 22.2954 31.0474C22.2568 30.3816 22.3711 29.7159 22.6295 29.1012C22.888 28.4864 23.2838 27.939 23.7866 27.5009C24.2893 27.0628 24.8857 26.7457 25.53 26.5737C25.6359 26.5452 25.7324 26.4894 25.8098 26.4119C25.8873 26.3343 25.9429 26.2377 25.9713 26.1319L28.9088 15.1706C28.9371 15.0648 28.9372 14.9533 28.9089 14.8475C28.8806 14.7416 28.8249 14.6451 28.7475 14.5675C28.2756 14.0963 27.9178 13.5233 27.7016 12.8925C27.4853 12.2617 27.4163 11.5897 27.4999 10.9281C27.5834 10.2665 27.8173 9.63274 28.1836 9.07547C28.5499 8.51821 29.0389 8.05219 29.6132 7.71311L28.9788 10.0625C28.9487 10.1744 28.9503 10.2924 28.9834 10.4034C29.0165 10.5145 29.0798 10.6141 29.1663 10.6912L31.2575 12.5456C31.33 12.61 31.4165 12.6565 31.5101 12.6817C31.6037 12.7069 31.7019 12.7099 31.7969 12.6906L34.5357 12.1281C34.6493 12.1048 34.7543 12.0503 34.8387 11.9707C34.9232 11.8911 34.9838 11.7896 35.0138 11.6775L35.6438 9.32686C36.2079 10.3235 36.3583 11.5017 36.0625 12.6081Z" fill="white"/>
<path d="M35.8125 7.49999C35.7349 7.42274 35.6382 7.36727 35.5324 7.33913C35.4265 7.31099 35.3151 7.31117 35.2093 7.33965C35.1035 7.36814 35.0071 7.42393 34.9297 7.50143C34.8522 7.57894 34.7966 7.67543 34.7682 7.78124L33.9107 10.9819L31.8563 11.4019L30.2882 10.0112L31.1438 6.81249C31.1721 6.70668 31.1721 6.5953 31.1438 6.48949C31.1155 6.38369 31.0598 6.28719 30.9825 6.20965C30.9051 6.13211 30.8088 6.07625 30.703 6.04768C30.5973 6.01911 30.4859 6.01883 30.38 6.04686C29.4567 6.29324 28.6116 6.77111 27.9245 7.43525C27.2374 8.0994 26.7311 8.92787 26.4535 9.84228C26.1759 10.7567 26.1362 11.7268 26.3382 12.6608C26.5401 13.5949 26.977 14.4619 27.6075 15.18L25.0438 24.75C24.6848 24.5625 24.3103 24.4065 23.9244 24.2837L18.75 22.6656V20.4962C19.8787 19.9209 20.8264 19.0446 21.4882 17.9644C22.15 16.8841 22.5002 15.6419 22.5 14.375V13.75C22.918 13.7514 23.3243 13.6126 23.6541 13.3559C23.9839 13.0991 24.2181 12.7392 24.3193 12.3337C24.4205 11.9282 24.3829 11.5005 24.2124 11.1189C24.0419 10.7373 23.7484 10.4239 23.3788 10.2287C23.4149 10.1768 23.4479 10.1228 23.4775 10.0669L23.54 9.93811C23.6591 9.70199 23.7265 9.44324 23.7378 9.17907C23.7491 8.91489 23.7041 8.65132 23.6058 8.40587C23.5074 8.16043 23.3579 7.93872 23.1673 7.75549C22.9766 7.57225 22.7492 7.43168 22.5 7.34311V4.14999C22.4981 3.71704 22.3471 3.29798 22.0724 2.96331C21.7977 2.62865 21.4162 2.39881 20.9919 2.31249L16.7244 1.45436C15.9963 1.31437 15.2482 1.31437 14.52 1.45436L10.2575 2.31249C9.8334 2.39894 9.45197 2.62883 9.17742 2.96348C8.90287 3.29813 8.75195 3.71713 8.75004 4.14999V7.34311C8.50081 7.4315 8.27324 7.57191 8.08246 7.75502C7.89167 7.93812 7.74203 8.15973 7.64349 8.40512C7.54494 8.65051 7.49974 8.91406 7.51089 9.17827C7.52205 9.44247 7.58929 9.70127 7.70817 9.93749L7.77067 10.0625C7.79998 10.119 7.83232 10.1738 7.86754 10.2269C7.49666 10.4217 7.20198 10.7354 7.03083 11.1178C6.85968 11.5002 6.82197 11.929 6.92376 12.3354C7.02556 12.7417 7.26094 13.1021 7.59214 13.3587C7.92333 13.6152 8.33112 13.753 8.75004 13.75V14.375C8.75142 15.6409 9.10229 16.8818 9.76397 17.9611C10.4257 19.0403 11.3725 19.9158 12.5 20.4912V22.6656L7.32692 24.2837C5.92539 24.7152 4.69967 25.5858 3.83057 26.7669C2.96147 27.9481 2.49502 29.3773 2.50004 30.8437V38.125C2.50004 38.2907 2.56589 38.4497 2.6831 38.5669C2.80031 38.6841 2.95928 38.75 3.12504 38.75H28.125C28.2908 38.75 28.4498 38.6841 28.567 38.5669C28.6842 38.4497 28.75 38.2907 28.75 38.125V36.875H27.5V37.5H24.375V35.625H23.125V37.5H8.12504V30.625H6.87504V37.5H3.75004V30.8437C3.74579 29.6441 4.12732 28.4748 4.83834 27.5086C5.54935 26.5423 6.55218 25.8303 7.69879 25.4775L9.37504 24.9531V28.75C9.37603 29.5785 9.70559 30.3728 10.2914 30.9586C10.8773 31.5444 11.6715 31.874 12.5 31.875H18.75C19.181 31.8741 19.6071 31.7835 20.0011 31.609C20.3951 31.4344 20.7485 31.1798 21.0388 30.8612C21.056 32.3291 21.6479 33.7317 22.6875 34.7681C22.7652 34.8454 22.8618 34.9008 22.9677 34.929C23.0736 34.9571 23.185 34.9569 23.2908 34.9284C23.3966 34.9 23.493 34.8442 23.5704 34.7667C23.6478 34.6892 23.7035 34.5927 23.7319 34.4869L24.5894 31.2862L26.6432 30.8656L28.2119 32.2562L27.3544 35.4569C27.3296 35.5495 27.3264 35.6466 27.3451 35.7406C27.3638 35.8346 27.4039 35.9231 27.4622 35.9992C27.5206 36.0753 27.5957 36.1369 27.6817 36.1793C27.7677 36.2217 27.8623 36.2437 27.9582 36.2437C28.012 36.2436 28.0655 36.2367 28.1175 36.2231C29.0411 35.977 29.8865 35.4993 30.5738 34.8352C31.2611 34.1711 31.7675 33.3425 32.0452 32.428C32.3228 31.5135 32.3624 30.5432 32.1603 29.6091C31.9581 28.675 31.5209 27.8079 30.89 27.09L33.6475 16.7981C34.5532 16.4918 35.3656 15.9593 36.0079 15.2512C36.6502 14.5431 37.1011 13.6827 37.3179 12.7516C37.5347 11.8205 37.5102 10.8494 37.2468 9.93043C36.9834 9.01141 36.4897 8.17486 35.8125 7.49999ZM24.2057 25.7381C23.2436 26.2097 22.4354 26.9449 21.875 27.8581V24.9531L23.5507 25.4775C23.7743 25.5505 23.993 25.6376 24.2057 25.7381ZM18.7869 23.9881L18.3044 26.505L16.6332 25.505L18.2994 23.8387L18.7869 23.9881ZM9.56254 9.84249C9.42926 9.86666 9.29174 9.84688 9.17067 9.78612C9.04961 9.72536 8.95156 9.62692 8.89129 9.50561L8.82879 9.38061C8.7847 9.2925 8.76206 9.19522 8.76273 9.0967C8.76339 8.99818 8.78734 8.90121 8.83262 8.81371C8.87789 8.7262 8.94321 8.65064 9.02325 8.59319C9.10329 8.53573 9.19578 8.49802 9.29317 8.48311L14.7732 7.64061C15.3398 7.55311 15.9165 7.55311 16.4832 7.64061L21.9632 8.48311C22.0604 8.498 22.1528 8.53564 22.2328 8.59298C22.3128 8.65032 22.3781 8.72574 22.4234 8.81309C22.4687 8.90043 22.4928 8.99725 22.4936 9.09565C22.4944 9.19405 22.472 9.29126 22.4282 9.37936L22.3657 9.50811C22.3052 9.62907 22.2072 9.72717 22.0863 9.78768C21.9654 9.8482 21.8281 9.86786 21.695 9.84374L16.6363 8.92311C15.9714 8.80186 15.29 8.80186 14.625 8.92311L9.56254 9.84249ZM22.5 12.5V11.25C22.6658 11.25 22.8248 11.3158 22.942 11.433C23.0592 11.5503 23.125 11.7092 23.125 11.875C23.125 12.0407 23.0592 12.1997 22.942 12.3169C22.8248 12.4341 22.6658 12.5 22.5 12.5ZM21.25 4.14999V7.10811L19.6407 6.85811L20.3219 3.44999L20.7444 3.53499C20.8867 3.56351 21.0147 3.64031 21.1068 3.75238C21.199 3.86445 21.2496 4.00491 21.25 4.14999ZM14.7613 2.68249C15.33 2.5728 15.9144 2.5728 16.4832 2.68249L19.0969 3.20749L18.4038 6.67186L16.6707 6.40499C15.9777 6.29749 15.2724 6.29749 14.5794 6.40499L12.8463 6.67186L12.1532 3.20624L14.7613 2.68249ZM10.505 3.53749L10.9282 3.45249L11.6094 6.86061L10 7.11061V4.14999C10.0011 4.00542 10.0518 3.86562 10.1438 3.75408C10.2358 3.64253 10.3633 3.56605 10.505 3.53749ZM8.12504 11.875C8.12504 11.7092 8.19089 11.5503 8.3081 11.433C8.42531 11.3158 8.58428 11.25 8.75004 11.25V12.5C8.58428 12.5 8.42531 12.4341 8.3081 12.3169C8.19089 12.1997 8.12504 12.0407 8.12504 11.875ZM10 14.375V11.0325L14.8425 10.1525C15.3591 10.0584 15.8885 10.0584 16.405 10.1525L21.25 11.0325V14.375C21.25 15.8668 20.6574 17.2976 19.6025 18.3525C18.5476 19.4074 17.1169 20 15.625 20C14.1332 20 12.7025 19.4074 11.6476 18.3525C10.5927 17.2976 10 15.8668 10 14.375ZM15.625 21.25C16.2592 21.2489 16.8901 21.1603 17.5 20.9869V22.8662L15.625 24.7412L13.75 22.8662V20.9837C14.3597 21.1588 14.9907 21.2484 15.625 21.25ZM12.9507 23.8344L14.6169 25.5L12.9457 26.5L12.4632 23.9831L12.9507 23.8344ZM18.75 30.625H12.5C12.0028 30.625 11.5258 30.4274 11.1742 30.0758C10.8226 29.7242 10.625 29.2473 10.625 28.75V24.5625L11.2619 24.3631L11.8869 27.6181C11.9057 27.7172 11.9483 27.8103 12.0109 27.8893C12.0734 27.9684 12.1542 28.0312 12.2464 28.0723C12.3385 28.1133 12.4392 28.1315 12.5398 28.1252C12.6405 28.119 12.7381 28.0884 12.8244 28.0362L15.625 26.3537L18.4282 28.0356C18.5145 28.0878 18.6121 28.1184 18.7128 28.1246C18.8134 28.1309 18.9141 28.1127 19.0062 28.0716C19.0983 28.0306 19.1791 27.9678 19.2417 27.8887C19.3043 27.8096 19.3468 27.7166 19.3657 27.6175L19.9907 24.3625L20.625 24.5625V28.75C20.625 29.2473 20.4275 29.7242 20.0759 30.0758C19.7242 30.4274 19.2473 30.625 18.75 30.625ZM36.0625 12.6081C35.8622 13.3487 35.4711 14.0237 34.9284 14.5659C34.3856 15.1081 33.7102 15.4985 32.9694 15.6981C32.8636 15.7266 32.7671 15.7824 32.6897 15.86C32.6122 15.9375 32.5565 16.0341 32.5282 16.14L29.5907 27.1006C29.5623 27.2065 29.5623 27.3179 29.5906 27.4237C29.6189 27.5296 29.6745 27.6262 29.7519 27.7037C30.224 28.1748 30.5819 28.7477 30.7983 29.3786C31.0147 30.0094 31.0838 30.6814 31.0003 31.343C30.9168 32.0047 30.6829 32.6385 30.3166 33.1957C29.9503 33.753 29.4612 34.2191 28.8869 34.5581L29.5169 32.2069C29.5471 32.0949 29.5456 31.9767 29.5125 31.8656C29.4794 31.7544 29.416 31.6547 29.3294 31.5775L27.2375 29.7231C27.1233 29.6217 26.9759 29.5657 26.8232 29.5656C26.7812 29.5658 26.7393 29.57 26.6982 29.5781L23.96 30.1406C23.8464 30.1639 23.7416 30.2183 23.6571 30.2978C23.5727 30.3772 23.512 30.4786 23.4819 30.5906L22.8525 32.9419C22.5247 32.3612 22.3341 31.7131 22.2954 31.0474C22.2568 30.3816 22.3711 29.7159 22.6295 29.1012C22.888 28.4864 23.2838 27.939 23.7866 27.5009C24.2893 27.0628 24.8857 26.7457 25.53 26.5737C25.6359 26.5452 25.7324 26.4894 25.8098 26.4119C25.8873 26.3343 25.9429 26.2377 25.9713 26.1319L28.9088 15.1706C28.9371 15.0648 28.9372 14.9533 28.9089 14.8475C28.8806 14.7416 28.8249 14.6451 28.7475 14.5675C28.2756 14.0963 27.9178 13.5233 27.7016 12.8925C27.4853 12.2617 27.4163 11.5897 27.4999 10.9281C27.5834 10.2665 27.8173 9.63274 28.1836 9.07547C28.5499 8.51821 29.0389 8.05219 29.6132 7.71311L28.9788 10.0625C28.9487 10.1744 28.9503 10.2924 28.9834 10.4034C29.0165 10.5145 29.0798 10.6141 29.1663 10.6912L31.2575 12.5456C31.33 12.61 31.4165 12.6565 31.5101 12.6817C31.6037 12.7069 31.7019 12.7099 31.7969 12.6906L34.5357 12.1281C34.6493 12.1048 34.7543 12.0503 34.8387 11.9707C34.9232 11.8911 34.9838 11.7896 35.0138 11.6775L35.6438 9.32686C36.2079 10.3235 36.3583 11.5017 36.0625 12.6081Z" fill="#071F37" fill-opacity="0.6"/>
</svg>
