<svg width="24" height="24" viewBox="0 0 24 24" fill="none" xmlns="http://www.w3.org/2000/svg">
<path d="M21.758 11.3937L12.7568 3.214C12.3697 2.92867 11.9825 2.92867 11.5954 3.214L2.30376 11.3937C1.91661 11.7741 1.91661 12.3448 2.20697 12.7252C2.30376 12.9155 2.59412 13.0106 2.7877 13.0106C3.07806 13.0106 3.27164 12.9155 3.46521 12.8203L3.65879 12.6301V20.9049H10.6275V20.5244C10.6275 19.288 10.6275 18.0515 10.6275 16.9102V16.1493H13.144V21H20.1126V12.7252L20.3062 12.9155C20.4998 13.1057 20.6934 13.2008 20.9837 13.2008C21.2741 13.2008 21.4677 13.1057 21.6612 12.9155C22.1452 12.3448 22.0484 11.679 21.758 11.3937ZM18.3705 19.0026H15.1765V14.1519H8.88531V14.5324C8.88531 15.7688 8.88531 16.9102 8.88531 18.1466V19.0026H5.59453V11.0132L12.0793 5.30647L18.2737 10.9181V19.0026H18.3705Z" fill="#F56900"/>
</svg>
