<svg width="32" height="32" viewBox="0 0 32 32" fill="none" xmlns="http://www.w3.org/2000/svg">
<path fill-rule="evenodd" clip-rule="evenodd" d="M12.0007 14.6667C9.79151 14.6667 8.00065 16.4575 8.00065 18.6667C8.00065 20.8758 9.79151 22.6667 12.0007 22.6667C14.2098 22.6667 16.0007 20.8758 16.0007 18.6667C16.0007 16.4575 14.2098 14.6667 12.0007 14.6667ZM5.33398 18.6667C5.33398 14.9848 8.31875 12 12.0007 12C15.6825 12 18.6673 14.9848 18.6673 18.6667C18.6673 22.3486 15.6825 25.3333 12.0007 25.3333C8.31875 25.3333 5.33398 22.3486 5.33398 18.6667Z" fill="white"/>
<path fill-rule="evenodd" clip-rule="evenodd" d="M12.0007 14.6667C9.79151 14.6667 8.00065 16.4575 8.00065 18.6667C8.00065 20.8758 9.79151 22.6667 12.0007 22.6667C14.2098 22.6667 16.0007 20.8758 16.0007 18.6667C16.0007 16.4575 14.2098 14.6667 12.0007 14.6667ZM5.33398 18.6667C5.33398 14.9848 8.31875 12 12.0007 12C15.6825 12 18.6673 14.9848 18.6673 18.6667C18.6673 22.3486 15.6825 25.3333 12.0007 25.3333C8.31875 25.3333 5.33398 22.3486 5.33398 18.6667Z" fill="#071F37" fill-opacity="0.6"/>
<path fill-rule="evenodd" clip-rule="evenodd" d="M23.6088 7.05718C24.1295 7.57788 24.1295 8.4221 23.6088 8.9428L22.5516 9.99999L24.9422 12.3905C25.4629 12.9112 25.4629 13.7554 24.9422 14.2761C24.4215 14.7968 23.5772 14.7968 23.0565 14.2761L20.666 11.8856L16.9422 15.6095C16.4215 16.1302 15.5772 16.1302 15.0565 15.6095C14.5358 15.0888 14.5358 14.2445 15.0565 13.7238L21.7232 7.05718C22.2439 6.53648 23.0881 6.53648 23.6088 7.05718Z" fill="white"/>
<path fill-rule="evenodd" clip-rule="evenodd" d="M23.6088 7.05718C24.1295 7.57788 24.1295 8.4221 23.6088 8.9428L22.5516 9.99999L24.9422 12.3905C25.4629 12.9112 25.4629 13.7554 24.9422 14.2761C24.4215 14.7968 23.5772 14.7968 23.0565 14.2761L20.666 11.8856L16.9422 15.6095C16.4215 16.1302 15.5772 16.1302 15.0565 15.6095C14.5358 15.0888 14.5358 14.2445 15.0565 13.7238L21.7232 7.05718C22.2439 6.53648 23.0881 6.53648 23.6088 7.05718Z" fill="#071F37" fill-opacity="0.6"/>
</svg>
