<svg width="24" height="25" viewBox="0 0 24 25" fill="none" xmlns="http://www.w3.org/2000/svg">
<path fill-rule="evenodd" clip-rule="evenodd" d="M9 11.5C7.34315 11.5 6 12.8431 6 14.5C6 16.1569 7.34315 17.5 9 17.5C10.6569 17.5 12 16.1569 12 14.5C12 12.8431 10.6569 11.5 9 11.5ZM4 14.5C4 11.7386 6.23858 9.5 9 9.5C11.7614 9.5 14 11.7386 14 14.5C14 17.2614 11.7614 19.5 9 19.5C6.23858 19.5 4 17.2614 4 14.5Z" fill="#F56900"/>
<path fill-rule="evenodd" clip-rule="evenodd" d="M17.7071 5.79289C18.0976 6.18342 18.0976 6.81658 17.7071 7.20711L16.9142 8L18.7071 9.79289C19.0976 10.1834 19.0976 10.8166 18.7071 11.2071C18.3166 11.5976 17.6834 11.5976 17.2929 11.2071L15.5 9.41421L12.7071 12.2071C12.3166 12.5976 11.6834 12.5976 11.2929 12.2071C10.9024 11.8166 10.9024 11.1834 11.2929 10.7929L16.2929 5.79289C16.6834 5.40237 17.3166 5.40237 17.7071 5.79289Z" fill="#F56900"/>
</svg>
