<svg width="32" height="32" viewBox="0 0 32 32" fill="none" xmlns="http://www.w3.org/2000/svg">
<path d="M17.5614 4H11.9993C9.48519 4 8.22811 4 7.44706 4.78105C6.66602 5.5621 6.66602 6.81918 6.66602 9.33333V22.6667C6.66602 25.1808 6.66602 26.4379 7.44706 27.219C8.22811 28 9.48519 28 11.9993 28H19.9993C22.5135 28 23.7706 28 24.5516 27.219C25.3327 26.4379 25.3327 25.1808 25.3327 22.6667V11.7712C25.3327 11.2262 25.3327 10.9537 25.2312 10.7087C25.1297 10.4637 24.937 10.271 24.5516 9.88562L19.4471 4.78105C19.0617 4.39567 18.869 4.20299 18.624 4.10149C18.3789 4 18.1064 4 17.5614 4Z" stroke="white" stroke-width="2"/>
<path d="M17.5614 4H11.9993C9.48519 4 8.22811 4 7.44706 4.78105C6.66602 5.5621 6.66602 6.81918 6.66602 9.33333V22.6667C6.66602 25.1808 6.66602 26.4379 7.44706 27.219C8.22811 28 9.48519 28 11.9993 28H19.9993C22.5135 28 23.7706 28 24.5516 27.219C25.3327 26.4379 25.3327 25.1808 25.3327 22.6667V11.7712C25.3327 11.2262 25.3327 10.9537 25.2312 10.7087C25.1297 10.4637 24.937 10.271 24.5516 9.88562L19.4471 4.78105C19.0617 4.39567 18.869 4.20299 18.624 4.10149C18.3789 4 18.1064 4 17.5614 4Z" stroke="#071F37" stroke-opacity="0.6" stroke-width="2"/>
<path d="M12 17.3333L20 17.3333" stroke="white" stroke-width="2" stroke-linecap="round"/>
<path d="M12 17.3333L20 17.3333" stroke="#071F37" stroke-opacity="0.6" stroke-width="2" stroke-linecap="round"/>
<path d="M12 22.6667L17.3333 22.6667" stroke="white" stroke-width="2" stroke-linecap="round"/>
<path d="M12 22.6667L17.3333 22.6667" stroke="#071F37" stroke-opacity="0.6" stroke-width="2" stroke-linecap="round"/>
<path d="M17.334 4V9.33333C17.334 10.5904 17.334 11.219 17.7245 11.6095C18.115 12 18.7436 12 20.0007 12H25.334" stroke="white" stroke-width="2"/>
<path d="M17.334 4V9.33333C17.334 10.5904 17.334 11.219 17.7245 11.6095C18.115 12 18.7436 12 20.0007 12H25.334" stroke="#071F37" stroke-opacity="0.6" stroke-width="2"/>
</svg>
