<svg width="125" height="26" viewBox="0 0 125 26" fill="none" xmlns="http://www.w3.org/2000/svg">
<path d="M0 20.1008V0.846639H9.36328C11.6211 0.846639 13.3287 1.37465 14.486 2.43067C15.6624 3.46849 16.2506 4.89776 16.2506 6.71849C16.2506 8.52101 15.6624 9.95938 14.486 11.0336C13.3287 12.0896 11.6211 12.6176 9.36328 12.6176H4.43973V20.1008H0ZM4.43973 9.31303H8.79409C9.85659 9.31303 10.644 9.08543 11.1563 8.63025C11.6875 8.17507 11.9531 7.53782 11.9531 6.71849C11.9531 5.89916 11.6875 5.27101 11.1563 4.83403C10.644 4.37885 9.85659 4.15126 8.79409 4.15126H4.43973V9.31303Z" fill="white"/>
<path d="M18.6138 20.1008V9.91387C18.6138 9.31303 18.5949 8.70308 18.5569 8.08403C18.5379 7.46499 18.4905 6.85504 18.4146 6.2542H22.5413L23.0251 10.2962H22.3705C22.5603 9.31303 22.8638 8.5028 23.2812 7.86555C23.7176 7.22829 24.2489 6.7549 24.875 6.44538C25.5201 6.13585 26.2506 5.98109 27.0664 5.98109C27.4269 5.98109 27.7115 5.9993 27.9202 6.03572C28.1289 6.05392 28.3376 6.09944 28.5463 6.17227L28.5179 9.80462C28.1194 9.64076 27.7779 9.54062 27.4933 9.5042C27.2277 9.44958 26.8862 9.42227 26.4687 9.42227C25.6719 9.42227 25.0078 9.56793 24.4766 9.85924C23.9643 10.1506 23.5753 10.5784 23.3097 11.1429C23.0631 11.7073 22.9397 12.3901 22.9397 13.1912V20.1008H18.6138Z" fill="white"/>
<path d="M36.9233 20.4013C35.3865 20.4013 34.0488 20.1099 32.9105 19.5273C31.791 18.9265 30.9183 18.0889 30.2921 17.0147C29.685 15.9405 29.3814 14.6569 29.3814 13.1639C29.3814 11.6891 29.685 10.4146 30.2921 9.34034C30.9183 8.26611 31.791 7.43768 32.9105 6.85504C34.0488 6.27241 35.3865 5.98109 36.9233 5.98109C38.4601 5.98109 39.7977 6.27241 40.9361 6.85504C42.0745 7.43768 42.9473 8.26611 43.5544 9.34034C44.1805 10.4146 44.4936 11.6891 44.4936 13.1639C44.4936 14.6569 44.1805 15.9405 43.5544 17.0147C42.9473 18.0889 42.0745 18.9265 40.9361 19.5273C39.7977 20.1099 38.4601 20.4013 36.9233 20.4013ZM36.9233 17.2878C37.9099 17.2878 38.6878 16.951 39.257 16.2773C39.8452 15.6036 40.1392 14.5658 40.1392 13.1639C40.1392 11.7619 39.8452 10.7332 39.257 10.0777C38.6878 9.42227 37.9099 9.09454 36.9233 9.09454C35.9367 9.09454 35.1493 9.42227 34.5611 10.0777C33.9919 10.7332 33.7073 11.7619 33.7073 13.1639C33.7073 14.5658 33.9919 15.6036 34.5611 16.2773C35.1493 16.951 35.9367 17.2878 36.9233 17.2878Z" fill="white"/>
<path d="M47.2689 26V9.85924C47.2689 9.27661 47.2499 8.68487 47.212 8.08403C47.174 7.46499 47.1171 6.85504 47.0412 6.2542H51.1679L51.5094 8.95798H51.1963C51.4809 8.04762 52.0786 7.32843 52.9893 6.80042C53.9 6.2542 54.9435 5.98109 56.1199 5.98109C57.3721 5.98109 58.4726 6.27241 59.4212 6.85504C60.3699 7.41947 61.1098 8.2388 61.6411 9.31303C62.1913 10.3873 62.4664 11.6709 62.4664 13.1639C62.4664 14.6751 62.1913 15.9678 61.6411 17.042C61.1098 18.1162 60.3699 18.9447 59.4212 19.5273C58.4726 20.1099 57.3721 20.4013 56.1199 20.4013C54.9625 20.4013 53.9285 20.1373 53.0178 19.6092C52.126 19.0812 51.5284 18.3803 51.2248 17.5063H51.5663V26H47.2689ZM54.8107 17.2878C55.8163 17.2878 56.6227 16.951 57.2298 16.2773C57.837 15.6036 58.1405 14.5658 58.1405 13.1639C58.1405 11.7619 57.837 10.7332 57.2298 10.0777C56.6227 9.42227 55.8163 9.09454 54.8107 9.09454C53.8241 9.09454 53.0178 9.42227 52.3916 10.0777C51.7845 10.7332 51.4809 11.7619 51.4809 13.1639C51.4809 14.5658 51.7845 15.6036 52.3916 16.2773C53.0178 16.951 53.8241 17.2878 54.8107 17.2878Z" fill="white"/>
<path d="M70.1744 20.1008V4.31513H63.7994V0.846639H80.9891V4.31513H74.6141V20.1008H70.1744Z" fill="white"/>
<path d="M88.1276 20.4013C85.6232 20.4013 83.6689 19.7549 82.2649 18.4622C80.8609 17.1695 80.1589 15.4125 80.1589 13.1912C80.1589 11.7528 80.4529 10.4965 81.0411 9.42227C81.6483 8.34804 82.4831 7.5105 83.5456 6.90966C84.6271 6.29062 85.8888 5.98109 87.3307 5.98109C88.7537 5.98109 89.9396 6.27241 90.8882 6.85504C91.8559 7.43768 92.5768 8.257 93.0512 9.31303C93.5445 10.3508 93.7911 11.5616 93.7911 12.9454V13.9013H83.6879V11.8529H90.6605L90.1767 12.2353C90.1767 11.0882 89.9301 10.2234 89.4368 9.64076C88.9624 9.03992 88.2699 8.7395 87.3592 8.7395C86.3536 8.7395 85.5757 9.09454 85.0255 9.80462C84.4942 10.5147 84.2286 11.5343 84.2286 12.8634V13.3004C84.2286 14.6478 84.5701 15.6492 85.2532 16.3046C85.9552 16.9601 86.9608 17.2878 88.2699 17.2878C89.0478 17.2878 89.7783 17.1968 90.4613 17.0147C91.1633 16.8144 91.8274 16.5049 92.4535 16.0861L93.6488 18.8172C92.9278 19.327 92.093 19.7185 91.1444 19.9916C90.2147 20.2647 89.2091 20.4013 88.1276 20.4013Z" fill="white"/>
<path d="M103.462 20.4013C101.925 20.4013 100.578 20.1099 99.4206 19.5273C98.2633 18.9447 97.3715 18.1071 96.7454 17.0147C96.1193 15.9223 95.8062 14.6296 95.8062 13.1366C95.8062 11.6253 96.1193 10.3417 96.7454 9.28572C97.3905 8.21149 98.2822 7.39216 99.4206 6.82773C100.578 6.26331 101.925 5.98109 103.462 5.98109C104.43 5.98109 105.369 6.11765 106.279 6.39076C107.209 6.66387 107.968 7.04622 108.556 7.53782L107.304 10.3782C106.83 9.95938 106.279 9.64986 105.653 9.44958C105.046 9.23109 104.458 9.12185 103.889 9.12185C102.731 9.12185 101.83 9.46779 101.185 10.1597C100.54 10.8515 100.217 11.8529 100.217 13.1639C100.217 14.4748 100.54 15.4762 101.185 16.1681C101.83 16.8599 102.731 17.2059 103.889 17.2059C104.439 17.2059 105.018 17.1057 105.625 16.9055C106.251 16.7052 106.811 16.4048 107.304 16.0042L108.556 18.8172C107.949 19.3088 107.181 19.7003 106.251 19.9916C105.34 20.2647 104.411 20.4013 103.462 20.4013Z" fill="white"/>
<path d="M110.998 20.1008V0H115.295V8.84874H114.868C115.324 7.92017 115.997 7.21008 116.889 6.71849C117.781 6.22689 118.805 5.98109 119.963 5.98109C121.651 5.98109 122.913 6.45448 123.748 7.40126C124.583 8.32983 125 9.7591 125 11.6891V20.1008H120.703V11.8803C120.703 10.9153 120.513 10.2234 120.133 9.80462C119.773 9.38585 119.204 9.17647 118.426 9.17647C117.477 9.17647 116.718 9.45868 116.149 10.0231C115.58 10.5875 115.295 11.3431 115.295 12.2899V20.1008H110.998Z" fill="white"/>
</svg>
