<svg width="88" height="32" viewBox="0 0 88 32" fill="none" xmlns="http://www.w3.org/2000/svg">
<g clip-path="url(#clip0_2314_19351)">
<path d="M3.12486 28.9385C1.02268 26.9408 0 24.6006 0 21.8038H2.04537C2.04537 24.0298 2.8976 25.9704 4.54526 27.5686C6.19291 29.1668 8.23828 29.9659 10.5677 29.9659C13.1244 29.9659 15.2834 29.281 17.1583 27.9111C18.9764 26.5412 19.8855 24.886 19.8855 22.9453C19.8855 21.2901 19.0901 19.8631 17.4992 18.7215C15.9652 17.58 13.8062 16.8951 11.1927 16.6667C7.9542 16.3814 5.39749 15.4681 3.46576 13.927C1.53402 12.3859 0.568157 10.4453 0.568157 8.16214C0.454526 5.9361 1.42039 3.99545 3.40894 2.39727C5.39749 0.79909 7.78375 0 10.5677 0C13.579 0 16.1357 0.856168 18.2378 2.51143C20.34 4.16669 21.4195 6.22149 21.4195 8.56168H19.3742C19.3742 6.73519 18.5219 5.19409 16.7606 3.8813C15.0562 2.56851 13.0108 1.94065 10.5677 1.94065C8.35191 1.94065 6.47699 2.56851 4.88615 3.76714C3.29531 4.96578 2.55671 6.4498 2.55671 8.16214C2.55671 9.87448 3.35213 11.3014 4.99978 12.443C6.64744 13.5845 8.86325 14.3266 11.5904 14.5549C14.7153 14.8403 17.2152 15.7535 19.1469 17.2946C21.0218 18.8357 21.9309 20.7193 21.9309 22.9453C21.9309 25.3997 20.8514 27.5115 18.6355 29.2239C16.4197 30.9362 13.7494 31.8495 10.6245 31.8495C7.6133 31.9065 5.17023 30.8791 3.12486 28.9385Z" fill="white"/>
<path d="M25.2812 31.1075V0.742012H44.9963V2.73974H27.3266V14.3836H43.4623V16.2672H27.3266V29.1097H44.9963V31.0504H25.2812V31.1075Z" fill="white"/>
<path d="M43.4648 31.1075V0.742012H63.1799V2.73974H45.5102V14.3836H61.6459V16.2672H45.5102V29.1097H63.1799V31.0504H43.4648V31.1075Z" fill="white"/>
<path d="M65.9062 31.1075V0.742012H80.3374C82.3828 0.742012 84.2009 1.5411 85.6213 3.08221C87.0985 4.62331 87.8371 6.50688 87.8371 8.73292C87.8371 10.6736 87.3826 12.3859 86.5304 13.8128C85.6213 15.2398 84.485 16.096 83.1214 16.3243C84.3714 16.6667 85.394 17.7512 86.1895 19.5206C86.9849 21.3471 87.3826 23.5161 87.3826 26.0846C87.3826 27.5115 87.4394 28.596 87.4962 29.338C87.553 30.1942 87.7235 30.765 87.8939 31.1075H85.7917C85.4509 30.7079 85.2236 29.9659 85.11 28.8814L84.9395 24.5435C84.9395 22.4887 84.4282 20.7193 83.4623 19.2923C82.4964 17.8654 81.3601 17.1234 79.9397 17.1234H67.8948V31.1645H65.9062V31.1075ZM79.9965 15.1827C81.5874 15.1827 82.951 14.5549 84.1441 13.3562C85.2804 12.1576 85.8486 10.6736 85.8486 8.96123C85.8486 7.24889 85.2804 5.76487 84.1441 4.56623C83.0078 3.36759 81.5874 2.79682 79.9965 2.79682H67.9516V15.2398H79.9965V15.1827Z" fill="white"/>
</g>
<defs>
<clipPath id="clip0_2314_19351">
<rect width="87.8371" height="32" fill="white"/>
</clipPath>
</defs>
</svg>
