<svg width="32" height="32" viewBox="0 0 32 32" fill="none" xmlns="http://www.w3.org/2000/svg">
<circle cx="16" cy="16" r="16" fill="white"/>
<circle cx="16" cy="16" r="16" fill="#071F37" fill-opacity="0.05"/>
<path fill-rule="evenodd" clip-rule="evenodd" d="M16.265 6C13.8717 6 11.9316 7.9401 11.9316 10.3333C11.9316 12.7266 13.8717 14.6667 16.265 14.6667C18.6582 14.6667 20.5983 12.7266 20.5983 10.3333C20.5983 7.9401 18.6582 6 16.265 6ZM9.93164 10.3333C9.93164 6.83553 12.7672 4 16.265 4C19.7628 4 22.5983 6.83553 22.5983 10.3333C22.5983 13.8311 19.7628 16.6667 16.265 16.6667C12.7672 16.6667 9.93164 13.8311 9.93164 10.3333Z" fill="#1976D2"/>
<path fill-rule="evenodd" clip-rule="evenodd" d="M10.5144 21.8598C12.0862 20.6537 14.0121 20 15.9933 20C17.9745 20 19.9003 20.6537 21.4721 21.8598C23.0439 23.0659 24.1738 24.7569 24.6866 26.6706C24.8296 27.2041 24.513 27.7524 23.9795 27.8954C23.446 28.0383 22.8977 27.7217 22.7548 27.1883C22.3559 25.6998 21.4771 24.3846 20.2546 23.4465C19.0321 22.5085 17.5342 22 15.9933 22C14.4523 22 12.9545 22.5085 11.732 23.4465C10.5094 24.3846 9.63062 25.6998 9.2318 27.1883C9.08886 27.7217 8.54052 28.0383 8.00705 27.8954C7.47359 27.7524 7.15701 27.2041 7.29995 26.6706C7.81272 24.7569 8.94263 23.0659 10.5144 21.8598Z" fill="#1976D2"/>
</svg>
