<svg width="32" height="32" viewBox="0 0 32 32" fill="none" xmlns="http://www.w3.org/2000/svg">
<path d="M3.74965 17.9445C3.22094 16.9941 2.95659 16.5189 2.95659 16C2.95659 15.4812 3.22094 15.0059 3.74965 14.0555L5.90922 10.1733L8.19149 6.36202C8.75024 5.42893 9.02961 4.96238 9.47894 4.70296C9.92827 4.44354 10.472 4.43487 11.5595 4.41752L16.0013 4.34668L20.4431 4.41752C21.5306 4.43487 22.0743 4.44354 22.5237 4.70296C22.973 4.96238 23.2524 5.42893 23.8111 6.36202L26.0934 10.1733L28.2529 14.0555C28.7817 15.0059 29.046 15.4812 29.046 16C29.046 16.5189 28.7817 16.9941 28.2529 17.9445L26.0934 21.8267L23.8111 25.638C23.2524 26.5711 22.973 27.0376 22.5237 27.2971C22.0743 27.5565 21.5306 27.5652 20.4431 27.5825L16.0013 27.6533L11.5595 27.5825C10.472 27.5652 9.92828 27.5565 9.47895 27.2971C9.02962 27.0376 8.75024 26.5711 8.19149 25.638L5.90922 21.8267L3.74965 17.9445Z" stroke="white" stroke-width="2"/>
<path d="M3.74965 17.9445C3.22094 16.9941 2.95659 16.5189 2.95659 16C2.95659 15.4812 3.22094 15.0059 3.74965 14.0555L5.90922 10.1733L8.19149 6.36202C8.75024 5.42893 9.02961 4.96238 9.47894 4.70296C9.92827 4.44354 10.472 4.43487 11.5595 4.41752L16.0013 4.34668L20.4431 4.41752C21.5306 4.43487 22.0743 4.44354 22.5237 4.70296C22.973 4.96238 23.2524 5.42893 23.8111 6.36202L26.0934 10.1733L28.2529 14.0555C28.7817 15.0059 29.046 15.4812 29.046 16C29.046 16.5189 28.7817 16.9941 28.2529 17.9445L26.0934 21.8267L23.8111 25.638C23.2524 26.5711 22.973 27.0376 22.5237 27.2971C22.0743 27.5565 21.5306 27.5652 20.4431 27.5825L16.0013 27.6533L11.5595 27.5825C10.472 27.5652 9.92828 27.5565 9.47895 27.2971C9.02962 27.0376 8.75024 26.5711 8.19149 25.638L5.90922 21.8267L3.74965 17.9445Z" stroke="#071F37" stroke-opacity="0.6" stroke-width="2"/>
<circle cx="16" cy="16" r="4" stroke="white" stroke-width="2"/>
<circle cx="16" cy="16" r="4" stroke="#071F37" stroke-opacity="0.6" stroke-width="2"/>
</svg>
