<svg width="16" height="16" viewBox="0 0 16 16" fill="none" xmlns="http://www.w3.org/2000/svg">
<path fill-rule="evenodd" clip-rule="evenodd" d="M5.30862 3.66666H10.6907C11.2985 3.66665 11.7885 3.66664 12.1738 3.71844C12.5738 3.77223 12.9107 3.88729 13.1782 4.15481C13.4457 4.42233 13.5608 4.75916 13.6146 5.15921C13.6664 5.54453 13.6664 6.03444 13.6663 6.64226V9.35772C13.6664 9.96554 13.6664 10.4555 13.6146 10.8408C13.5608 11.2408 13.4457 11.5776 13.1782 11.8452C12.9107 12.1127 12.5738 12.2277 12.1738 12.2815C11.7885 12.3333 11.2985 12.3333 10.6907 12.3333H5.30863C4.70081 12.3333 4.21088 12.3333 3.82556 12.2815C3.42552 12.2277 3.08868 12.1127 2.82116 11.8452C2.55365 11.5776 2.43858 11.2408 2.3848 10.8408C2.33299 10.4554 2.333 9.96553 2.33301 9.35771V6.64227C2.333 6.03445 2.33299 5.54453 2.3848 5.15921C2.43858 4.75916 2.55365 4.42233 2.82116 4.15481C3.08868 3.88729 3.42552 3.77223 3.82556 3.71844C4.21088 3.66664 4.7008 3.66665 5.30862 3.66666ZM3.9144 4.37917C3.58827 4.42301 3.41557 4.50321 3.29257 4.62622C3.16956 4.74922 3.08936 4.92192 3.04552 5.24804C3.00038 5.58375 2.99967 6.02869 2.99967 6.66666V9.33332C2.99967 9.97129 3.00038 10.4162 3.04552 10.7519C3.08936 11.0781 3.16956 11.2508 3.29257 11.3738C3.41557 11.4968 3.58827 11.577 3.9144 11.6208C4.25011 11.6659 4.69505 11.6667 5.33301 11.6667H10.6663C11.3043 11.6667 11.7492 11.6659 12.085 11.6208C12.4111 11.577 12.5838 11.4968 12.7068 11.3738C12.8298 11.2508 12.91 11.0781 12.9538 10.7519C12.999 10.4162 12.9997 9.97129 12.9997 9.33332V6.66666C12.9997 6.02869 12.999 5.58376 12.9538 5.24804C12.91 4.92192 12.8298 4.74922 12.7068 4.62622C12.5838 4.50321 12.4111 4.42301 12.085 4.37917C11.7492 4.33403 11.3043 4.33332 10.6663 4.33332H5.33301C4.69505 4.33332 4.25011 4.33403 3.9144 4.37917Z" fill="white"/>
<path fill-rule="evenodd" clip-rule="evenodd" d="M5.30862 3.66666H10.6907C11.2985 3.66665 11.7885 3.66664 12.1738 3.71844C12.5738 3.77223 12.9107 3.88729 13.1782 4.15481C13.4457 4.42233 13.5608 4.75916 13.6146 5.15921C13.6664 5.54453 13.6664 6.03444 13.6663 6.64226V9.35772C13.6664 9.96554 13.6664 10.4555 13.6146 10.8408C13.5608 11.2408 13.4457 11.5776 13.1782 11.8452C12.9107 12.1127 12.5738 12.2277 12.1738 12.2815C11.7885 12.3333 11.2985 12.3333 10.6907 12.3333H5.30863C4.70081 12.3333 4.21088 12.3333 3.82556 12.2815C3.42552 12.2277 3.08868 12.1127 2.82116 11.8452C2.55365 11.5776 2.43858 11.2408 2.3848 10.8408C2.33299 10.4554 2.333 9.96553 2.33301 9.35771V6.64227C2.333 6.03445 2.33299 5.54453 2.3848 5.15921C2.43858 4.75916 2.55365 4.42233 2.82116 4.15481C3.08868 3.88729 3.42552 3.77223 3.82556 3.71844C4.21088 3.66664 4.7008 3.66665 5.30862 3.66666ZM3.9144 4.37917C3.58827 4.42301 3.41557 4.50321 3.29257 4.62622C3.16956 4.74922 3.08936 4.92192 3.04552 5.24804C3.00038 5.58375 2.99967 6.02869 2.99967 6.66666V9.33332C2.99967 9.97129 3.00038 10.4162 3.04552 10.7519C3.08936 11.0781 3.16956 11.2508 3.29257 11.3738C3.41557 11.4968 3.58827 11.577 3.9144 11.6208C4.25011 11.6659 4.69505 11.6667 5.33301 11.6667H10.6663C11.3043 11.6667 11.7492 11.6659 12.085 11.6208C12.4111 11.577 12.5838 11.4968 12.7068 11.3738C12.8298 11.2508 12.91 11.0781 12.9538 10.7519C12.999 10.4162 12.9997 9.97129 12.9997 9.33332V6.66666C12.9997 6.02869 12.999 5.58376 12.9538 5.24804C12.91 4.92192 12.8298 4.74922 12.7068 4.62622C12.5838 4.50321 12.4111 4.42301 12.085 4.37917C11.7492 4.33403 11.3043 4.33332 10.6663 4.33332H5.33301C4.69505 4.33332 4.25011 4.33403 3.9144 4.37917Z" fill="#071F37" fill-opacity="0.8"/>
<path fill-rule="evenodd" clip-rule="evenodd" d="M7.25463 8.66665L2.51758 6.29813L2.81572 5.70184L7.55277 8.07037C7.8343 8.21113 8.16567 8.21113 8.4472 8.07037L13.1842 5.70184L13.4824 6.29813L8.74534 8.66665C8.27613 8.90126 7.72384 8.90126 7.25463 8.66665Z" fill="white"/>
<path fill-rule="evenodd" clip-rule="evenodd" d="M7.25463 8.66665L2.51758 6.29813L2.81572 5.70184L7.55277 8.07037C7.8343 8.21113 8.16567 8.21113 8.4472 8.07037L13.1842 5.70184L13.4824 6.29813L8.74534 8.66665C8.27613 8.90126 7.72384 8.90126 7.25463 8.66665Z" fill="#071F37" fill-opacity="0.8"/>
</svg>
