<svg width="40" height="40" viewBox="0 0 40 40" fill="none" xmlns="http://www.w3.org/2000/svg">
<path d="M37.1439 0H9.54397C9.16293 0 8.85397 0.308962 8.85397 0.689998V4.87123C7.33629 5.04096 5.93469 5.76389 4.91633 6.9018C3.89797 8.0397 3.33454 9.51299 3.33398 11.04V11.73C3.33398 13.3771 3.98825 14.9566 5.1529 16.121C6.3173 17.2858 7.89688 17.94 9.54397 17.94H17.824C19.1051 17.94 20.3335 18.4488 21.2392 19.3547C22.1451 20.2603 22.6539 21.4888 22.6539 22.7699V24.8399H19.8939C19.1544 24.8399 18.4711 25.2345 18.1012 25.8749C17.7316 26.5153 17.7316 27.3045 18.1012 27.9449C18.4712 28.5853 19.1543 28.9799 19.8939 28.9799H20.2389V37.9499C20.2389 38.1329 20.3116 38.3085 20.441 38.4378C20.5704 38.5672 20.746 38.6399 20.9289 38.6399H25.7589C25.9419 38.6399 26.1175 38.5672 26.2469 38.4378C26.3762 38.3085 26.4489 38.1329 26.4489 37.9499V28.9799H26.7939C27.5335 28.9799 28.2167 28.5853 28.5867 27.9449C28.9563 27.3045 28.9563 26.5153 28.5867 25.8749C28.2167 25.2345 27.5335 24.8399 26.7939 24.8399H24.0339V22.7699C24.0339 21.1229 23.3797 19.5433 22.215 18.3789C21.0506 17.2142 19.471 16.56 17.824 16.56H9.54397C8.26286 16.56 7.03443 16.0511 6.12875 15.1452C5.22284 14.2396 4.71398 13.0112 4.71398 11.73V11.04C4.71521 9.87959 5.13445 8.75833 5.89471 7.88136C6.65494 7.00471 7.70534 6.43078 8.85397 6.26511V9.65998C8.85397 9.84295 8.92667 10.0185 9.05604 10.1479C9.18542 10.2773 9.361 10.35 9.54397 10.35H37.1439C37.3269 10.35 37.5025 10.2773 37.6318 10.1479C37.7612 10.0185 37.8339 9.84295 37.8339 9.65998V0.689998C37.8339 0.507027 37.7612 0.331444 37.6318 0.202071C37.5025 0.0726982 37.3269 0 37.1439 0ZM27.4839 26.9099C27.4839 27.0929 27.4112 27.2685 27.2819 27.3979C27.1525 27.5272 26.9769 27.5999 26.7939 27.5999H25.7589C25.3779 27.5999 25.0689 27.9089 25.0689 28.2899V37.2599H21.6189V28.2899C21.6189 28.107 21.5462 27.9314 21.4169 27.802C21.2875 27.6726 21.1119 27.5999 20.9289 27.5999H19.8939C19.5129 27.5999 19.2039 27.291 19.2039 26.9099C19.2039 26.5289 19.5129 26.2199 19.8939 26.2199H26.7939C26.9769 26.2199 27.1525 26.2926 27.2819 26.422C27.4112 26.5514 27.4839 26.727 27.4839 26.9099ZM36.4539 8.96998H10.234V1.38H36.4539V8.96998Z" fill="white"/>
<path d="M37.1439 0H9.54397C9.16293 0 8.85397 0.308962 8.85397 0.689998V4.87123C7.33629 5.04096 5.93469 5.76389 4.91633 6.9018C3.89797 8.0397 3.33454 9.51299 3.33398 11.04V11.73C3.33398 13.3771 3.98825 14.9566 5.1529 16.121C6.3173 17.2858 7.89688 17.94 9.54397 17.94H17.824C19.1051 17.94 20.3335 18.4488 21.2392 19.3547C22.1451 20.2603 22.6539 21.4888 22.6539 22.7699V24.8399H19.8939C19.1544 24.8399 18.4711 25.2345 18.1012 25.8749C17.7316 26.5153 17.7316 27.3045 18.1012 27.9449C18.4712 28.5853 19.1543 28.9799 19.8939 28.9799H20.2389V37.9499C20.2389 38.1329 20.3116 38.3085 20.441 38.4378C20.5704 38.5672 20.746 38.6399 20.9289 38.6399H25.7589C25.9419 38.6399 26.1175 38.5672 26.2469 38.4378C26.3762 38.3085 26.4489 38.1329 26.4489 37.9499V28.9799H26.7939C27.5335 28.9799 28.2167 28.5853 28.5867 27.9449C28.9563 27.3045 28.9563 26.5153 28.5867 25.8749C28.2167 25.2345 27.5335 24.8399 26.7939 24.8399H24.0339V22.7699C24.0339 21.1229 23.3797 19.5433 22.215 18.3789C21.0506 17.2142 19.471 16.56 17.824 16.56H9.54397C8.26286 16.56 7.03443 16.0511 6.12875 15.1452C5.22284 14.2396 4.71398 13.0112 4.71398 11.73V11.04C4.71521 9.87959 5.13445 8.75833 5.89471 7.88136C6.65494 7.00471 7.70534 6.43078 8.85397 6.26511V9.65998C8.85397 9.84295 8.92667 10.0185 9.05604 10.1479C9.18542 10.2773 9.361 10.35 9.54397 10.35H37.1439C37.3269 10.35 37.5025 10.2773 37.6318 10.1479C37.7612 10.0185 37.8339 9.84295 37.8339 9.65998V0.689998C37.8339 0.507027 37.7612 0.331444 37.6318 0.202071C37.5025 0.0726982 37.3269 0 37.1439 0ZM27.4839 26.9099C27.4839 27.0929 27.4112 27.2685 27.2819 27.3979C27.1525 27.5272 26.9769 27.5999 26.7939 27.5999H25.7589C25.3779 27.5999 25.0689 27.9089 25.0689 28.2899V37.2599H21.6189V28.2899C21.6189 28.107 21.5462 27.9314 21.4169 27.802C21.2875 27.6726 21.1119 27.5999 20.9289 27.5999H19.8939C19.5129 27.5999 19.2039 27.291 19.2039 26.9099C19.2039 26.5289 19.5129 26.2199 19.8939 26.2199H26.7939C26.9769 26.2199 27.1525 26.2926 27.2819 26.422C27.4112 26.5514 27.4839 26.727 27.4839 26.9099ZM36.4539 8.96998H10.234V1.38H36.4539V8.96998Z" fill="#071F37" fill-opacity="0.6"/>
</svg>
