<svg width="24" height="24" viewBox="0 0 24 24" fill="none" xmlns="http://www.w3.org/2000/svg">
<path fill-rule="evenodd" clip-rule="evenodd" d="M13.293 14.2929L14.7073 15.7071L11.4144 19L14.7073 22.2929L13.293 23.7071L8.58594 19L13.293 14.2929Z" fill="white"/>
<path fill-rule="evenodd" clip-rule="evenodd" d="M13.293 14.2929L14.7073 15.7071L11.4144 19L14.7073 22.2929L13.293 23.7071L8.58594 19L13.293 14.2929Z" fill="#071F37" fill-opacity="0.6"/>
<path fill-rule="evenodd" clip-rule="evenodd" d="M17.5622 7.63399C17.0839 7.91013 16.92 8.52172 17.1962 9.00001C17.7228 9.91213 18 10.9468 18 12C18 13.0532 17.7228 14.0879 17.1962 15C16.6695 15.9121 15.9121 16.6696 15 17.1962C14.0879 17.7228 13.0532 18 12 18C11.4477 18 11 18.4477 11 19C11 19.5523 11.4477 20 12 20C13.4043 20 14.7838 19.6304 16 18.9282C17.2162 18.2261 18.2261 17.2162 18.9282 16C19.6303 14.7839 20 13.4043 20 12C20 10.5957 19.6303 9.21617 18.9282 8.00001C18.6521 7.52172 18.0405 7.35785 17.5622 7.63399Z" fill="white"/>
<path fill-rule="evenodd" clip-rule="evenodd" d="M17.5622 7.63399C17.0839 7.91013 16.92 8.52172 17.1962 9.00001C17.7228 9.91213 18 10.9468 18 12C18 13.0532 17.7228 14.0879 17.1962 15C16.6695 15.9121 15.9121 16.6696 15 17.1962C14.0879 17.7228 13.0532 18 12 18C11.4477 18 11 18.4477 11 19C11 19.5523 11.4477 20 12 20C13.4043 20 14.7838 19.6304 16 18.9282C17.2162 18.2261 18.2261 17.2162 18.9282 16C19.6303 14.7839 20 13.4043 20 12C20 10.5957 19.6303 9.21617 18.9282 8.00001C18.6521 7.52172 18.0405 7.35785 17.5622 7.63399Z" fill="#071F37" fill-opacity="0.6"/>
<path fill-rule="evenodd" clip-rule="evenodd" d="M10.707 9.70712L9.29274 8.29291L12.5856 5.00002L9.29274 1.70712L10.707 0.29291L15.4141 5.00002L10.707 9.70712Z" fill="white"/>
<path fill-rule="evenodd" clip-rule="evenodd" d="M10.707 9.70712L9.29274 8.29291L12.5856 5.00002L9.29274 1.70712L10.707 0.29291L15.4141 5.00002L10.707 9.70712Z" fill="#071F37" fill-opacity="0.6"/>
<path fill-rule="evenodd" clip-rule="evenodd" d="M6.43782 16.366C6.91611 16.0899 7.07999 15.4783 6.80385 15C6.27724 14.0879 6 13.0532 6 12C6 10.9468 6.27724 9.91213 6.80385 9.00002C7.33046 8.0879 8.08788 7.33047 9 6.80386C9.91212 6.27725 10.9468 6.00002 12 6.00002C12.5523 6.00002 13 5.5523 13 5.00002C13 4.44773 12.5523 4.00002 12 4.00002C10.5957 4.00002 9.21615 4.36967 8 5.07181C6.78385 5.77396 5.77394 6.78386 5.0718 8.00002C4.36965 9.21617 4 10.5957 4 12C4 13.4043 4.36965 14.7839 5.0718 16C5.34794 16.4783 5.95953 16.6422 6.43782 16.366Z" fill="white"/>
<path fill-rule="evenodd" clip-rule="evenodd" d="M6.43782 16.366C6.91611 16.0899 7.07999 15.4783 6.80385 15C6.27724 14.0879 6 13.0532 6 12C6 10.9468 6.27724 9.91213 6.80385 9.00002C7.33046 8.0879 8.08788 7.33047 9 6.80386C9.91212 6.27725 10.9468 6.00002 12 6.00002C12.5523 6.00002 13 5.5523 13 5.00002C13 4.44773 12.5523 4.00002 12 4.00002C10.5957 4.00002 9.21615 4.36967 8 5.07181C6.78385 5.77396 5.77394 6.78386 5.0718 8.00002C4.36965 9.21617 4 10.5957 4 12C4 13.4043 4.36965 14.7839 5.0718 16C5.34794 16.4783 5.95953 16.6422 6.43782 16.366Z" fill="#071F37" fill-opacity="0.6"/>
</svg>
