<svg width="66" height="16" viewBox="0 0 66 16" fill="none" xmlns="http://www.w3.org/2000/svg">
<path d="M12.1111 12.09C11.4045 12.09 10.8045 11.9433 10.3111 11.65C9.8178 11.3567 9.4378 10.94 9.17113 10.4C8.91113 9.86 8.78113 9.21667 8.78113 8.47C8.78113 7.72333 8.91113 7.08333 9.17113 6.55C9.4378 6.01 9.8178 5.59333 10.3111 5.3C10.8045 5.00667 11.4045 4.86 12.1111 4.86C12.6111 4.86 13.0578 4.93667 13.4511 5.09C13.8445 5.24333 14.1878 5.46667 14.4811 5.76L14.1711 6.42C13.8511 6.14 13.5345 5.93667 13.2211 5.81C12.9078 5.67667 12.5411 5.61 12.1211 5.61C11.3145 5.61 10.7011 5.86 10.2811 6.36C9.86113 6.86 9.65113 7.56333 9.65113 8.47C9.65113 9.37667 9.86113 10.0833 10.2811 10.59C10.7011 11.09 11.3145 11.34 12.1211 11.34C12.5411 11.34 12.9078 11.2767 13.2211 11.15C13.5345 11.0167 13.8511 10.8067 14.1711 10.52L14.4811 11.19C14.1878 11.4767 13.8445 11.7 13.4511 11.86C13.0578 12.0133 12.6111 12.09 12.1111 12.09ZM17.4955 12.09C17.0155 12.09 16.5955 11.9867 16.2355 11.78C15.8822 11.5667 15.6088 11.2667 15.4155 10.88C15.2222 10.4867 15.1255 10.0233 15.1255 9.49C15.1255 8.95 15.2222 8.48667 15.4155 8.1C15.6088 7.71333 15.8822 7.41667 16.2355 7.21C16.5955 6.99667 17.0155 6.89 17.4955 6.89C17.9822 6.89 18.4022 6.99667 18.7555 7.21C19.1155 7.41667 19.3922 7.71333 19.5855 8.1C19.7855 8.48667 19.8855 8.95 19.8855 9.49C19.8855 10.0233 19.7855 10.4867 19.5855 10.88C19.3922 11.2667 19.1155 11.5667 18.7555 11.78C18.4022 11.9867 17.9822 12.09 17.4955 12.09ZM17.4955 11.43C17.9755 11.43 18.3555 11.2667 18.6355 10.94C18.9155 10.6067 19.0555 10.1233 19.0555 9.49C19.0555 8.85 18.9122 8.36667 18.6255 8.04C18.3455 7.70667 17.9688 7.54 17.4955 7.54C17.0222 7.54 16.6455 7.70667 16.3655 8.04C16.0855 8.36667 15.9455 8.85 15.9455 9.49C15.9455 10.1233 16.0855 10.6067 16.3655 10.94C16.6455 11.2667 17.0222 11.43 17.4955 11.43ZM21.1484 12V8.14C21.1484 7.95333 21.1384 7.76333 21.1184 7.57C21.1051 7.37 21.0884 7.17333 21.0684 6.98H21.8484L21.9484 8.08H21.8284C21.9617 7.7 22.1717 7.40667 22.4584 7.2C22.7517 6.99333 23.1051 6.89 23.5184 6.89C23.9384 6.89 24.2784 6.99 24.5384 7.19C24.8051 7.39 24.9851 7.7 25.0784 8.12H24.9284C25.0551 7.74 25.2784 7.44 25.5984 7.22C25.9184 7 26.2917 6.89 26.7184 6.89C27.2717 6.89 27.6884 7.05 27.9684 7.37C28.2484 7.68333 28.3884 8.18 28.3884 8.86V12H27.5784V8.91C27.5784 8.43667 27.4951 8.09333 27.3284 7.88C27.1617 7.66 26.8951 7.55 26.5284 7.55C26.1084 7.55 25.7751 7.69667 25.5284 7.99C25.2884 8.27667 25.1684 8.66333 25.1684 9.15V12H24.3584V8.91C24.3584 8.43667 24.2751 8.09333 24.1084 7.88C23.9417 7.66 23.6751 7.55 23.3084 7.55C22.8884 7.55 22.5584 7.69667 22.3184 7.99C22.0784 8.27667 21.9584 8.66333 21.9584 9.15V12H21.1484ZM29.9277 14.16V8.14C29.9277 7.95333 29.9177 7.76333 29.8977 7.57C29.8844 7.37 29.8677 7.17333 29.8477 6.98H30.6277L30.7377 8.17H30.6177C30.7244 7.77667 30.941 7.46667 31.2677 7.24C31.5944 7.00667 31.9844 6.89 32.4377 6.89C32.891 6.89 33.281 6.99333 33.6077 7.2C33.941 7.40667 34.201 7.70333 34.3877 8.09C34.5744 8.47667 34.6677 8.94333 34.6677 9.49C34.6677 10.03 34.5744 10.4933 34.3877 10.88C34.2077 11.2667 33.951 11.5667 33.6177 11.78C33.2844 11.9867 32.891 12.09 32.4377 12.09C31.991 12.09 31.6044 11.9767 31.2777 11.75C30.951 11.5233 30.7344 11.2133 30.6277 10.82H30.7377V14.16H29.9277ZM32.2777 11.43C32.7577 11.43 33.1377 11.2667 33.4177 10.94C33.7044 10.6067 33.8477 10.1233 33.8477 9.49C33.8477 8.85 33.7044 8.36667 33.4177 8.04C33.1377 7.70667 32.7577 7.54 32.2777 7.54C31.8044 7.54 31.4244 7.70667 31.1377 8.04C30.8577 8.36667 30.7177 8.85 30.7177 9.49C30.7177 10.1233 30.8577 10.6067 31.1377 10.94C31.4244 11.2667 31.8044 11.43 32.2777 11.43ZM35.9238 12V4.64H36.7338V12H35.9238ZM40.5366 12.09C39.7499 12.09 39.1299 11.8633 38.6766 11.41C38.2233 10.95 37.9966 10.3133 37.9966 9.5C37.9966 8.97333 38.0966 8.51667 38.2966 8.13C38.4966 7.73667 38.7766 7.43333 39.1366 7.22C39.4966 7 39.9099 6.89 40.3766 6.89C40.8366 6.89 41.2233 6.98667 41.5366 7.18C41.8499 7.37333 42.0899 7.65 42.2566 8.01C42.4233 8.36333 42.5066 8.78333 42.5066 9.27V9.57H38.6166V9.06H41.9766L41.8066 9.19C41.8066 8.65667 41.6866 8.24 41.4466 7.94C41.2066 7.64 40.8499 7.49 40.3766 7.49C39.8766 7.49 39.4866 7.66667 39.2066 8.02C38.9266 8.36667 38.7866 8.83667 38.7866 9.43V9.52C38.7866 10.1467 38.9399 10.6233 39.2466 10.95C39.5599 11.27 39.9966 11.43 40.5566 11.43C40.8566 11.43 41.1366 11.3867 41.3966 11.3C41.6633 11.2067 41.9166 11.0567 42.1566 10.85L42.4366 11.42C42.2166 11.6333 41.9366 11.8 41.5966 11.92C41.2633 12.0333 40.9099 12.09 40.5366 12.09ZM45.5261 12.09C45.0327 12.09 44.6561 11.95 44.3961 11.67C44.1361 11.3833 44.0061 10.9533 44.0061 10.38V7.61H43.0261V6.98H44.0061V5.61L44.8161 5.38V6.98H46.2561V7.61H44.8161V10.29C44.8161 10.69 44.8827 10.9767 45.0161 11.15C45.1561 11.3167 45.3627 11.4 45.6361 11.4C45.7627 11.4 45.8761 11.39 45.9761 11.37C46.0761 11.3433 46.1661 11.3133 46.2461 11.28V11.96C46.1527 12 46.0394 12.03 45.9061 12.05C45.7794 12.0767 45.6527 12.09 45.5261 12.09ZM49.4233 12.09C48.6367 12.09 48.0167 11.8633 47.5633 11.41C47.11 10.95 46.8833 10.3133 46.8833 9.5C46.8833 8.97333 46.9833 8.51667 47.1833 8.13C47.3833 7.73667 47.6633 7.43333 48.0233 7.22C48.3833 7 48.7967 6.89 49.2633 6.89C49.7233 6.89 50.11 6.98667 50.4233 7.18C50.7367 7.37333 50.9767 7.65 51.1433 8.01C51.31 8.36333 51.3933 8.78333 51.3933 9.27V9.57H47.5033V9.06H50.8633L50.6933 9.19C50.6933 8.65667 50.5733 8.24 50.3333 7.94C50.0933 7.64 49.7367 7.49 49.2633 7.49C48.7633 7.49 48.3733 7.66667 48.0933 8.02C47.8133 8.36667 47.6733 8.83667 47.6733 9.43V9.52C47.6733 10.1467 47.8267 10.6233 48.1333 10.95C48.4467 11.27 48.8833 11.43 49.4433 11.43C49.7433 11.43 50.0233 11.3867 50.2833 11.3C50.55 11.2067 50.8033 11.0567 51.0433 10.85L51.3233 11.42C51.1033 11.6333 50.8233 11.8 50.4833 11.92C50.15 12.0333 49.7967 12.09 49.4233 12.09ZM54.5328 12.09C54.0928 12.09 53.7061 11.9867 53.3728 11.78C53.0394 11.5667 52.7794 11.2667 52.5928 10.88C52.4128 10.4933 52.3228 10.03 52.3228 9.49C52.3228 8.94333 52.4128 8.47667 52.5928 8.09C52.7794 7.70333 53.0394 7.40667 53.3728 7.2C53.7061 6.99333 54.0928 6.89 54.5328 6.89C54.9861 6.89 55.3761 7.00333 55.7028 7.23C56.0361 7.45667 56.2594 7.76333 56.3728 8.15H56.2528V4.64H57.0628V12H56.2628V10.8H56.3728C56.2661 11.2 56.0461 11.5167 55.7128 11.75C55.3794 11.9767 54.9861 12.09 54.5328 12.09ZM54.7028 11.43C55.1761 11.43 55.5561 11.2667 55.8428 10.94C56.1294 10.6067 56.2728 10.1233 56.2728 9.49C56.2728 8.85 56.1294 8.36667 55.8428 8.04C55.5561 7.70667 55.1761 7.54 54.7028 7.54C54.2294 7.54 53.8494 7.70667 53.5628 8.04C53.2828 8.36667 53.1428 8.85 53.1428 9.49C53.1428 10.1233 53.2828 10.6067 53.5628 10.94C53.8494 11.2667 54.2294 11.43 54.7028 11.43Z" fill="#0CCE6B"/>
<rect x="0.5" y="0.5" width="65" height="15" rx="7.5" stroke="#0CCE6B"/>
</svg>
