<svg width="85" height="16" viewBox="0 0 85 16" fill="none" xmlns="http://www.w3.org/2000/svg">
<path d="M8.92199 12V4.95H9.57199L14.092 10.95H13.862V4.95H14.632V12H13.992L9.47199 6H9.69199V12H8.92199ZM18.3627 12.09C17.8827 12.09 17.4627 11.9867 17.1027 11.78C16.7494 11.5667 16.476 11.2667 16.2827 10.88C16.0894 10.4867 15.9927 10.0233 15.9927 9.49C15.9927 8.95 16.0894 8.48667 16.2827 8.1C16.476 7.71333 16.7494 7.41667 17.1027 7.21C17.4627 6.99667 17.8827 6.89 18.3627 6.89C18.8494 6.89 19.2694 6.99667 19.6227 7.21C19.9827 7.41667 20.2594 7.71333 20.4527 8.1C20.6527 8.48667 20.7527 8.95 20.7527 9.49C20.7527 10.0233 20.6527 10.4867 20.4527 10.88C20.2594 11.2667 19.9827 11.5667 19.6227 11.78C19.2694 11.9867 18.8494 12.09 18.3627 12.09ZM18.3627 11.43C18.8427 11.43 19.2227 11.2667 19.5027 10.94C19.7827 10.6067 19.9227 10.1233 19.9227 9.49C19.9227 8.85 19.7794 8.36667 19.4927 8.04C19.2127 7.70667 18.836 7.54 18.3627 7.54C17.8894 7.54 17.5127 7.70667 17.2327 8.04C16.9527 8.36667 16.8127 8.85 16.8127 9.49C16.8127 10.1233 16.9527 10.6067 17.2327 10.94C17.5127 11.2667 17.8894 11.43 18.3627 11.43ZM23.7468 12.09C23.2534 12.09 22.8768 11.95 22.6168 11.67C22.3568 11.3833 22.2268 10.9533 22.2268 10.38V7.61H21.2468V6.98H22.2268V5.61L23.0368 5.38V6.98H24.4768V7.61H23.0368V10.29C23.0368 10.69 23.1034 10.9767 23.2368 11.15C23.3768 11.3167 23.5834 11.4 23.8568 11.4C23.9834 11.4 24.0968 11.39 24.1968 11.37C24.2968 11.3433 24.3868 11.3133 24.4668 11.28V11.96C24.3734 12 24.2601 12.03 24.1268 12.05C24.0001 12.0767 23.8734 12.09 23.7468 12.09ZM31.2303 12.09C30.5236 12.09 29.9236 11.9433 29.4303 11.65C28.9369 11.3567 28.5569 10.94 28.2903 10.4C28.0303 9.86 27.9003 9.21667 27.9003 8.47C27.9003 7.72333 28.0303 7.08333 28.2903 6.55C28.5569 6.01 28.9369 5.59333 29.4303 5.3C29.9236 5.00667 30.5236 4.86 31.2303 4.86C31.7303 4.86 32.1769 4.93667 32.5703 5.09C32.9636 5.24333 33.3069 5.46667 33.6003 5.76L33.2903 6.42C32.9703 6.14 32.6536 5.93667 32.3403 5.81C32.0269 5.67667 31.6603 5.61 31.2403 5.61C30.4336 5.61 29.8203 5.86 29.4003 6.36C28.9803 6.86 28.7703 7.56333 28.7703 8.47C28.7703 9.37667 28.9803 10.0833 29.4003 10.59C29.8203 11.09 30.4336 11.34 31.2403 11.34C31.6603 11.34 32.0269 11.2767 32.3403 11.15C32.6536 11.0167 32.9703 10.8067 33.2903 10.52L33.6003 11.19C33.3069 11.4767 32.9636 11.7 32.5703 11.86C32.1769 12.0133 31.7303 12.09 31.2303 12.09ZM36.6146 12.09C36.1346 12.09 35.7146 11.9867 35.3546 11.78C35.0013 11.5667 34.728 11.2667 34.5346 10.88C34.3413 10.4867 34.2446 10.0233 34.2446 9.49C34.2446 8.95 34.3413 8.48667 34.5346 8.1C34.728 7.71333 35.0013 7.41667 35.3546 7.21C35.7146 6.99667 36.1346 6.89 36.6146 6.89C37.1013 6.89 37.5213 6.99667 37.8746 7.21C38.2346 7.41667 38.5113 7.71333 38.7046 8.1C38.9046 8.48667 39.0046 8.95 39.0046 9.49C39.0046 10.0233 38.9046 10.4867 38.7046 10.88C38.5113 11.2667 38.2346 11.5667 37.8746 11.78C37.5213 11.9867 37.1013 12.09 36.6146 12.09ZM36.6146 11.43C37.0946 11.43 37.4746 11.2667 37.7546 10.94C38.0346 10.6067 38.1746 10.1233 38.1746 9.49C38.1746 8.85 38.0313 8.36667 37.7446 8.04C37.4646 7.70667 37.088 7.54 36.6146 7.54C36.1413 7.54 35.7646 7.70667 35.4846 8.04C35.2046 8.36667 35.0646 8.85 35.0646 9.49C35.0646 10.1233 35.2046 10.6067 35.4846 10.94C35.7646 11.2667 36.1413 11.43 36.6146 11.43ZM40.2675 12V8.14C40.2675 7.95333 40.2575 7.76333 40.2375 7.57C40.2242 7.37 40.2075 7.17333 40.1875 6.98H40.9675L41.0675 8.08H40.9475C41.0809 7.7 41.2909 7.40667 41.5775 7.2C41.8709 6.99333 42.2242 6.89 42.6375 6.89C43.0575 6.89 43.3975 6.99 43.6575 7.19C43.9242 7.39 44.1042 7.7 44.1975 8.12H44.0475C44.1742 7.74 44.3975 7.44 44.7175 7.22C45.0375 7 45.4109 6.89 45.8375 6.89C46.3909 6.89 46.8075 7.05 47.0875 7.37C47.3675 7.68333 47.5075 8.18 47.5075 8.86V12H46.6975V8.91C46.6975 8.43667 46.6142 8.09333 46.4475 7.88C46.2809 7.66 46.0142 7.55 45.6475 7.55C45.2275 7.55 44.8942 7.69667 44.6475 7.99C44.4075 8.27667 44.2875 8.66333 44.2875 9.15V12H43.4775V8.91C43.4775 8.43667 43.3942 8.09333 43.2275 7.88C43.0609 7.66 42.7942 7.55 42.4275 7.55C42.0075 7.55 41.6775 7.69667 41.4375 7.99C41.1975 8.27667 41.0775 8.66333 41.0775 9.15V12H40.2675ZM49.0468 14.16V8.14C49.0468 7.95333 49.0368 7.76333 49.0168 7.57C49.0035 7.37 48.9868 7.17333 48.9668 6.98H49.7468L49.8568 8.17H49.7368C49.8435 7.77667 50.0602 7.46667 50.3868 7.24C50.7135 7.00667 51.1035 6.89 51.5568 6.89C52.0102 6.89 52.4002 6.99333 52.7268 7.2C53.0602 7.40667 53.3202 7.70333 53.5068 8.09C53.6935 8.47667 53.7868 8.94333 53.7868 9.49C53.7868 10.03 53.6935 10.4933 53.5068 10.88C53.3268 11.2667 53.0702 11.5667 52.7368 11.78C52.4035 11.9867 52.0102 12.09 51.5568 12.09C51.1102 12.09 50.7235 11.9767 50.3968 11.75C50.0702 11.5233 49.8535 11.2133 49.7468 10.82H49.8568V14.16H49.0468ZM51.3968 11.43C51.8768 11.43 52.2568 11.2667 52.5368 10.94C52.8235 10.6067 52.9668 10.1233 52.9668 9.49C52.9668 8.85 52.8235 8.36667 52.5368 8.04C52.2568 7.70667 51.8768 7.54 51.3968 7.54C50.9235 7.54 50.5435 7.70667 50.2568 8.04C49.9768 8.36667 49.8368 8.85 49.8368 9.49C49.8368 10.1233 49.9768 10.6067 50.2568 10.94C50.5435 11.2667 50.9235 11.43 51.3968 11.43ZM55.0429 12V4.64H55.8529V12H55.0429ZM59.6557 12.09C58.8691 12.09 58.2491 11.8633 57.7957 11.41C57.3424 10.95 57.1157 10.3133 57.1157 9.5C57.1157 8.97333 57.2157 8.51667 57.4157 8.13C57.6157 7.73667 57.8957 7.43333 58.2557 7.22C58.6157 7 59.0291 6.89 59.4957 6.89C59.9557 6.89 60.3424 6.98667 60.6557 7.18C60.9691 7.37333 61.2091 7.65 61.3757 8.01C61.5424 8.36333 61.6257 8.78333 61.6257 9.27V9.57H57.7357V9.06H61.0957L60.9257 9.19C60.9257 8.65667 60.8057 8.24 60.5657 7.94C60.3257 7.64 59.9691 7.49 59.4957 7.49C58.9957 7.49 58.6057 7.66667 58.3257 8.02C58.0457 8.36667 57.9057 8.83667 57.9057 9.43V9.52C57.9057 10.1467 58.0591 10.6233 58.3657 10.95C58.6791 11.27 59.1157 11.43 59.6757 11.43C59.9757 11.43 60.2557 11.3867 60.5157 11.3C60.7824 11.2067 61.0357 11.0567 61.2757 10.85L61.5557 11.42C61.3357 11.6333 61.0557 11.8 60.7157 11.92C60.3824 12.0333 60.0291 12.09 59.6557 12.09ZM64.6452 12.09C64.1519 12.09 63.7752 11.95 63.5152 11.67C63.2552 11.3833 63.1252 10.9533 63.1252 10.38V7.61H62.1452V6.98H63.1252V5.61L63.9352 5.38V6.98H65.3752V7.61H63.9352V10.29C63.9352 10.69 64.0019 10.9767 64.1352 11.15C64.2752 11.3167 64.4819 11.4 64.7552 11.4C64.8819 11.4 64.9952 11.39 65.0952 11.37C65.1952 11.3433 65.2852 11.3133 65.3652 11.28V11.96C65.2719 12 65.1585 12.03 65.0252 12.05C64.8985 12.0767 64.7719 12.09 64.6452 12.09ZM68.5425 12.09C67.7558 12.09 67.1358 11.8633 66.6825 11.41C66.2291 10.95 66.0025 10.3133 66.0025 9.5C66.0025 8.97333 66.1025 8.51667 66.3025 8.13C66.5025 7.73667 66.7825 7.43333 67.1425 7.22C67.5025 7 67.9158 6.89 68.3825 6.89C68.8425 6.89 69.2291 6.98667 69.5425 7.18C69.8558 7.37333 70.0958 7.65 70.2625 8.01C70.4291 8.36333 70.5125 8.78333 70.5125 9.27V9.57H66.6225V9.06H69.9825L69.8125 9.19C69.8125 8.65667 69.6925 8.24 69.4525 7.94C69.2125 7.64 68.8558 7.49 68.3825 7.49C67.8825 7.49 67.4925 7.66667 67.2125 8.02C66.9325 8.36667 66.7925 8.83667 66.7925 9.43V9.52C66.7925 10.1467 66.9458 10.6233 67.2525 10.95C67.5658 11.27 68.0025 11.43 68.5625 11.43C68.8625 11.43 69.1425 11.3867 69.4025 11.3C69.6691 11.2067 69.9225 11.0567 70.1625 10.85L70.4425 11.42C70.2225 11.6333 69.9425 11.8 69.6025 11.92C69.2691 12.0333 68.9158 12.09 68.5425 12.09ZM73.6519 12.09C73.2119 12.09 72.8252 11.9867 72.4919 11.78C72.1586 11.5667 71.8986 11.2667 71.7119 10.88C71.5319 10.4933 71.4419 10.03 71.4419 9.49C71.4419 8.94333 71.5319 8.47667 71.7119 8.09C71.8986 7.70333 72.1586 7.40667 72.4919 7.2C72.8252 6.99333 73.2119 6.89 73.6519 6.89C74.1052 6.89 74.4952 7.00333 74.8219 7.23C75.1552 7.45667 75.3786 7.76333 75.4919 8.15H75.3719V4.64H76.1819V12H75.3819V10.8H75.4919C75.3852 11.2 75.1652 11.5167 74.8319 11.75C74.4986 11.9767 74.1052 12.09 73.6519 12.09ZM73.8219 11.43C74.2952 11.43 74.6752 11.2667 74.9619 10.94C75.2486 10.6067 75.3919 10.1233 75.3919 9.49C75.3919 8.85 75.2486 8.36667 74.9619 8.04C74.6752 7.70667 74.2952 7.54 73.8219 7.54C73.3486 7.54 72.9686 7.70667 72.6819 8.04C72.4019 8.36667 72.2619 8.85 72.2619 9.49C72.2619 10.1233 72.4019 10.6067 72.6819 10.94C72.9686 11.2667 73.3486 11.43 73.8219 11.43Z" fill="#F56900"/>
<rect x="0.5" y="0.5" width="84" height="15" rx="7.5" stroke="#F56900"/>
</svg>
