<svg width="24" height="24" viewBox="0 0 24 24" fill="none" xmlns="http://www.w3.org/2000/svg">
<path fill-rule="evenodd" clip-rule="evenodd" d="M11.6364 1.65219C11.6599 1.65555 11.6835 1.65892 11.7071 1.6623L16.0538 2.28326C17.2275 2.45089 18.2009 2.58992 18.9678 2.80013C19.7757 3.02159 20.4762 3.35195 21.0218 3.98109C21.5675 4.61022 21.7954 5.35042 21.9004 6.18152C22.0001 6.97042 22 7.95368 22 9.13926V14.8608C22 16.0463 22.0001 17.0296 21.9004 17.8185C21.7954 18.6496 21.5675 19.3898 21.0218 20.0189C20.4762 20.6481 19.7757 20.9784 18.9677 21.1999C18.2009 21.4101 17.2275 21.5491 16.0538 21.7168L11.6365 22.3478C10.6347 22.491 9.77959 22.6132 9.09142 22.6144C8.35883 22.6157 7.63832 22.4841 7.0344 21.9603C6.43048 21.4366 6.1983 20.7419 6.096 20.0165C5.99991 19.3351 5.99995 18.4713 6 17.4594L6 17.066H8V17.388C8 18.4912 8.00236 19.2121 8.07641 19.7372C8.1465 20.2343 8.25912 20.3751 8.3448 20.4494C8.43048 20.5238 8.58585 20.6153 9.08782 20.6144C9.61809 20.6135 10.3321 20.5138 11.4243 20.3578L15.7071 19.746C16.961 19.5669 17.8083 19.4439 18.439 19.271C19.0426 19.1056 19.3229 18.9253 19.5109 18.7085C19.6989 18.4918 19.8378 18.1888 19.9162 17.5679C19.9981 16.919 20 16.0628 20 14.7962V9.20378C20 7.93719 19.9981 7.08101 19.9162 6.43216C19.8378 5.81126 19.6989 5.50824 19.5109 5.29149C19.3229 5.07473 19.0426 4.89443 18.439 4.72898C17.8083 4.55608 16.961 4.43315 15.7071 4.25403L11.4243 3.6422C10.3321 3.48618 9.61809 3.38655 9.08783 3.3856C8.58585 3.38469 8.43048 3.47626 8.3448 3.55057C8.25912 3.62488 8.1465 3.76574 8.07641 4.2628C8.00236 4.78787 8 5.50884 8 6.61205V7.13194H6V6.61205C6 6.58816 6 6.56435 6 6.54062C5.99995 5.52874 5.99991 4.66493 6.096 3.98351C6.1983 3.2581 6.43048 2.56344 7.0344 2.03966C7.63832 1.51589 8.35883 1.38428 9.09142 1.3856C9.77958 1.38683 10.6347 1.50904 11.6364 1.65219Z" fill="white"/>
<path fill-rule="evenodd" clip-rule="evenodd" d="M11.6364 1.65219C11.6599 1.65555 11.6835 1.65892 11.7071 1.6623L16.0538 2.28326C17.2275 2.45089 18.2009 2.58992 18.9678 2.80013C19.7757 3.02159 20.4762 3.35195 21.0218 3.98109C21.5675 4.61022 21.7954 5.35042 21.9004 6.18152C22.0001 6.97042 22 7.95368 22 9.13926V14.8608C22 16.0463 22.0001 17.0296 21.9004 17.8185C21.7954 18.6496 21.5675 19.3898 21.0218 20.0189C20.4762 20.6481 19.7757 20.9784 18.9677 21.1999C18.2009 21.4101 17.2275 21.5491 16.0538 21.7168L11.6365 22.3478C10.6347 22.491 9.77959 22.6132 9.09142 22.6144C8.35883 22.6157 7.63832 22.4841 7.0344 21.9603C6.43048 21.4366 6.1983 20.7419 6.096 20.0165C5.99991 19.3351 5.99995 18.4713 6 17.4594L6 17.066H8V17.388C8 18.4912 8.00236 19.2121 8.07641 19.7372C8.1465 20.2343 8.25912 20.3751 8.3448 20.4494C8.43048 20.5238 8.58585 20.6153 9.08782 20.6144C9.61809 20.6135 10.3321 20.5138 11.4243 20.3578L15.7071 19.746C16.961 19.5669 17.8083 19.4439 18.439 19.271C19.0426 19.1056 19.3229 18.9253 19.5109 18.7085C19.6989 18.4918 19.8378 18.1888 19.9162 17.5679C19.9981 16.919 20 16.0628 20 14.7962V9.20378C20 7.93719 19.9981 7.08101 19.9162 6.43216C19.8378 5.81126 19.6989 5.50824 19.5109 5.29149C19.3229 5.07473 19.0426 4.89443 18.439 4.72898C17.8083 4.55608 16.961 4.43315 15.7071 4.25403L11.4243 3.6422C10.3321 3.48618 9.61809 3.38655 9.08783 3.3856C8.58585 3.38469 8.43048 3.47626 8.3448 3.55057C8.25912 3.62488 8.1465 3.76574 8.07641 4.2628C8.00236 4.78787 8 5.50884 8 6.61205V7.13194H6V6.61205C6 6.58816 6 6.56435 6 6.54062C5.99995 5.52874 5.99991 4.66493 6.096 3.98351C6.1983 3.2581 6.43048 2.56344 7.0344 2.03966C7.63832 1.51589 8.35883 1.38428 9.09142 1.3856C9.77958 1.38683 10.6347 1.50904 11.6364 1.65219Z" fill="#071F37" fill-opacity="0.6"/>
<path fill-rule="evenodd" clip-rule="evenodd" d="M12.781 6.37531L11.2193 7.6247L13.9195 11H4.00014C3.44785 11 3.00014 11.4477 3.00014 12C3.00014 12.5523 3.44785 13 4.00014 13H13.9195L11.2193 16.3753L12.781 17.6247L17.2808 12L12.781 6.37531Z" fill="white"/>
<path fill-rule="evenodd" clip-rule="evenodd" d="M12.781 6.37531L11.2193 7.6247L13.9195 11H4.00014C3.44785 11 3.00014 11.4477 3.00014 12C3.00014 12.5523 3.44785 13 4.00014 13H13.9195L11.2193 16.3753L12.781 17.6247L17.2808 12L12.781 6.37531Z" fill="#071F37" fill-opacity="0.6"/>
</svg>
