<svg width="32" height="32" viewBox="0 0 32 32" fill="none" xmlns="http://www.w3.org/2000/svg">
<path fill-rule="evenodd" clip-rule="evenodd" d="M15.4193 6.53333C13.3206 6.53333 11.6193 8.23465 11.6193 10.3333C11.6193 12.432 13.3206 14.1333 15.4193 14.1333C17.518 14.1333 19.2193 12.432 19.2193 10.3333C19.2193 8.23465 17.518 6.53333 15.4193 6.53333ZM9.08594 10.3333C9.08594 6.83553 11.9215 4 15.4193 4C18.9171 4 21.7526 6.83553 21.7526 10.3333C21.7526 13.8311 18.9171 16.6667 15.4193 16.6667C11.9215 16.6667 9.08594 13.8311 9.08594 10.3333Z" fill="white"/>
<path fill-rule="evenodd" clip-rule="evenodd" d="M15.4193 6.53333C13.3206 6.53333 11.6193 8.23465 11.6193 10.3333C11.6193 12.432 13.3206 14.1333 15.4193 14.1333C17.518 14.1333 19.2193 12.432 19.2193 10.3333C19.2193 8.23465 17.518 6.53333 15.4193 6.53333ZM9.08594 10.3333C9.08594 6.83553 11.9215 4 15.4193 4C18.9171 4 21.7526 6.83553 21.7526 10.3333C21.7526 13.8311 18.9171 16.6667 15.4193 16.6667C11.9215 16.6667 9.08594 13.8311 9.08594 10.3333Z" fill="#071F37" fill-opacity="0.6"/>
<path fill-rule="evenodd" clip-rule="evenodd" d="M17.0988 19.2961C16.5439 19.2323 15.9822 19.2 15.4183 19.2C12.987 19.2 10.5972 19.8002 8.61776 20.9393C6.63907 22.0781 5.13456 23.7223 4.43747 25.6735C4.20211 26.3323 4.54536 27.0571 5.20414 27.2925C5.86292 27.5278 6.58776 27.1846 6.82312 26.5258C7.28072 25.245 8.32059 24.0333 9.88137 23.135C11.1658 22.3959 12.7124 21.9237 14.3518 21.7799C14.7709 20.5429 15.8098 19.5917 17.0988 19.2961Z" fill="white"/>
<path fill-rule="evenodd" clip-rule="evenodd" d="M17.0988 19.2961C16.5439 19.2323 15.9822 19.2 15.4183 19.2C12.987 19.2 10.5972 19.8002 8.61776 20.9393C6.63907 22.0781 5.13456 23.7223 4.43747 25.6735C4.20211 26.3323 4.54536 27.0571 5.20414 27.2925C5.86292 27.5278 6.58776 27.1846 6.82312 26.5258C7.28072 25.245 8.32059 24.0333 9.88137 23.135C11.1658 22.3959 12.7124 21.9237 14.3518 21.7799C14.7709 20.5429 15.8098 19.5917 17.0988 19.2961Z" fill="#071F37" fill-opacity="0.6"/>
<path fill-rule="evenodd" clip-rule="evenodd" d="M23.0186 16.6667C23.7182 16.6667 24.2853 17.2338 24.2853 17.9333L24.2853 28.0667C24.2853 28.7662 23.7182 29.3333 23.0186 29.3333C22.3191 29.3333 21.752 28.7662 21.752 28.0667L21.752 17.9333C21.752 17.2338 22.3191 16.6667 23.0186 16.6667Z" fill="white"/>
<path fill-rule="evenodd" clip-rule="evenodd" d="M23.0186 16.6667C23.7182 16.6667 24.2853 17.2338 24.2853 17.9333L24.2853 28.0667C24.2853 28.7662 23.7182 29.3333 23.0186 29.3333C22.3191 29.3333 21.752 28.7662 21.752 28.0667L21.752 17.9333C21.752 17.2338 22.3191 16.6667 23.0186 16.6667Z" fill="#071F37" fill-opacity="0.6"/>
<path fill-rule="evenodd" clip-rule="evenodd" d="M29.3516 23C29.3516 23.6996 28.7845 24.2667 28.0849 24.2667L17.9516 24.2667C17.252 24.2667 16.6849 23.6996 16.6849 23C16.6849 22.3004 17.252 21.7333 17.9516 21.7333L28.0849 21.7333C28.7845 21.7333 29.3516 22.3004 29.3516 23Z" fill="white"/>
<path fill-rule="evenodd" clip-rule="evenodd" d="M29.3516 23C29.3516 23.6996 28.7845 24.2667 28.0849 24.2667L17.9516 24.2667C17.252 24.2667 16.6849 23.6996 16.6849 23C16.6849 22.3004 17.252 21.7333 17.9516 21.7333L28.0849 21.7333C28.7845 21.7333 29.3516 22.3004 29.3516 23Z" fill="#071F37" fill-opacity="0.6"/>
</svg>
